<?xml version="1.0" encoding="utf-8"?>
<!-- Generator: Adobe Illustrator 17.0.2, SVG Export Plug-In . SVG Version: 6.00 Build 0)  -->
<!DOCTYPE svg PUBLIC "-//W3C//DTD SVG 1.1//EN" "http://www.w3.org/Graphics/SVG/1.1/DTD/svg11.dtd">
<svg version="1.1" id="图层_1" xmlns="http://www.w3.org/2000/svg" xmlns:xlink="http://www.w3.org/1999/xlink" x="0px" y="0px"
	 width="55px" height="24px" viewBox="0 0 55 24" enable-background="new 0 0 55 24" xml:space="preserve">
<g>
	<path fill="#232323" d="M-30.5,0v24h90V0H-30.5z M45.459,21H9.758c-4.969,0-9.011-4.037-9.011-9s4.042-9,9.011-9H45.46
		c4.968,0,9.01,4.037,9.01,9S50.427,21,45.459,21z"/>
	<g>
		<g>
			<path fill="none" stroke="#3F3F3F" stroke-miterlimit="10" d="M54,12.945c0,4.687-3.795,8.5-8.459,8.5H9.459
				c-4.664,0-8.459-3.813-8.459-8.5"/>
		</g>
		<g>
			<path fill="none" stroke="#000000" stroke-miterlimit="10" d="M45.541,20.445H9.459c-4.664,0-8.459-3.813-8.459-8.5
				s3.794-8.5,8.459-8.5h36.083c4.664,0,8.458,3.813,8.458,8.5S50.205,20.445,45.541,20.445z"/>
		</g>
	</g>
</g>
</svg>
