<?xml version="1.0" encoding="utf-8"?>
<!-- Generator: Adobe Illustrator 17.0.2, SVG Export Plug-In . SVG Version: 6.00 Build 0)  -->
<!DOCTYPE svg PUBLIC "-//W3C//DTD SVG 1.1//EN" "http://www.w3.org/Graphics/SVG/1.1/DTD/svg11.dtd">
<svg version="1.1" id="图层_1" xmlns="http://www.w3.org/2000/svg" xmlns:xlink="http://www.w3.org/1999/xlink" x="0px" y="0px"
	 width="90px" height="18px" viewBox="0 0 90 18" enable-background="new 0 0 90 18" xml:space="preserve">
<g>
	<g>
		<defs>
			<rect id="SVGID_35_" x="0" y="0" width="45" height="20"/>
		</defs>
		<clipPath id="SVGID_1_">
			<use xlink:href="#SVGID_35_"  overflow="visible"/>
		</clipPath>
		<g clip-path="url(#SVGID_1_)">
			<g>
				<g>
					
						<linearGradient id="SVGID_2_" gradientUnits="userSpaceOnUse" x1="476.2945" y1="1320.4415" x2="476.2945" y2="1303.4415" gradientTransform="matrix(1 0 0 1 -449 -1303)">
						<stop  offset="0" style="stop-color:#5AAEE1"/>
						<stop  offset="0.7127" style="stop-color:#0064B1"/>
						<stop  offset="1" style="stop-color:#003993"/>
					</linearGradient>
					<path fill="url(#SVGID_2_)" d="M53.794,8.942c0,4.694-3.776,8.5-8.435,8.5H9.229c-4.598-0.252-8.435-3.806-8.435-8.5l0,0
						c0-4.694,3.776-8.5,8.435-8.5h36.132C50.018,0.442,53.794,4.248,53.794,8.942L53.794,8.942z"/>
					<path fill="none" stroke="#111111" stroke-miterlimit="10" d="M53.794,8.942c0,4.694-3.776,8.5-8.435,8.5H9.229
						c-4.598-0.252-8.435-3.806-8.435-8.5l0,0c0-4.694,3.776-8.5,8.435-8.5h36.132C50.018,0.442,53.794,4.248,53.794,8.942
						L53.794,8.942z"/>
				</g>
				
					<linearGradient id="SVGID_3_" gradientUnits="userSpaceOnUse" x1="476.5945" y1="1320" x2="476.5945" y2="1304" gradientTransform="matrix(1 0 0 1 -449 -1303)">
					<stop  offset="0" style="stop-color:#000000;stop-opacity:0.6"/>
					<stop  offset="1" style="stop-color:#000000"/>
				</linearGradient>
				<path opacity="0.2" fill="none" stroke="url(#SVGID_3_)" stroke-miterlimit="10" enable-background="new    " d="M9.415,16.5
					C5.321,16.5,1.99,13.101,1.99,9s3.331-7.5,7.425-7.5h36.359c4.094,0,7.425,3.398,7.425,7.5c0,4.101-3.331,7.5-7.425,7.5H9.415z"
					/>
				
					<linearGradient id="SVGID_4_" gradientUnits="userSpaceOnUse" x1="476.5945" y1="1319" x2="476.5945" y2="1305" gradientTransform="matrix(1 0 0 1 -449 -1303)">
					<stop  offset="0" style="stop-color:#000000;stop-opacity:0.6"/>
					<stop  offset="1" style="stop-color:#000000"/>
				</linearGradient>
				<path opacity="0.1" fill="none" stroke="url(#SVGID_4_)" stroke-miterlimit="10" enable-background="new    " d="M9.415,15.5
					c-3.508,0-6.363-2.985-6.363-6.5s2.855-6.5,6.363-6.5h36.359c3.508,0,6.363,2.985,6.363,6.5s-2.854,6.5-6.363,6.5H9.415z"/>
			</g>
			<g>
				<g opacity="0.3">
					<path d="M15.969,12.942c-2.757,0-5-2.243-5-5s2.243-5,5-5s5,2.243,5,5S18.726,12.942,15.969,12.942z M15.969,4.942
						c-1.654,0-3,1.346-3,3s1.346,3,3,3s3-1.346,3-3S17.623,4.942,15.969,4.942z"/>
				</g>
				<g>
					<g>
						<path fill="#FFFFFF" d="M15.969,13.942c-2.757,0-5-2.243-5-5s2.243-5,5-5s5,2.243,5,5S18.726,13.942,15.969,13.942z
							 M15.969,5.942c-1.654,0-3,1.346-3,3s1.346,3,3,3s3-1.346,3-3S17.623,5.942,15.969,5.942z"/>
					</g>
				</g>
			</g>
		</g>
	</g>
	<g>
		<defs>
			<rect id="SVGID_40_" x="45" y="-0.963" width="45" height="20"/>
		</defs>
		<clipPath id="SVGID_5_">
			<use xlink:href="#SVGID_40_"  overflow="visible"/>
		</clipPath>
		<g clip-path="url(#SVGID_5_)">
			<g>
				
					<linearGradient id="SVGID_6_" gradientUnits="userSpaceOnUse" x1="511.3473" y1="1320.1028" x2="511.3473" y2="1303.1028" gradientTransform="matrix(1 0 0 1 -449 -1303)">
					<stop  offset="0.0158" style="stop-color:#646464"/>
					<stop  offset="1" style="stop-color:#323232"/>
				</linearGradient>
				<path fill="url(#SVGID_6_)" d="M35.847,8.978c0,4.694,3.748,8.5,8.372,8.5h36.256c4.624,0,8.372-3.806,8.372-8.5l0,0
					c0-4.694-3.748-8.5-8.372-8.5H44.219C39.595,0.478,35.847,4.284,35.847,8.978L35.847,8.978z"/>
				<path fill="none" stroke="#111111" stroke-miterlimit="10" d="M35.847,8.978c0,4.694,3.748,8.5,8.372,8.5h36.256
					c4.624,0,8.372-3.806,8.372-8.5l0,0c0-4.694-3.748-8.5-8.372-8.5H44.219C39.595,0.478,35.847,4.284,35.847,8.978L35.847,8.978z"
					/>
			</g>
			
				<linearGradient id="SVGID_7_" gradientUnits="userSpaceOnUse" x1="-522.2222" y1="1320.0372" x2="-522.2222" y2="1304.0372" gradientTransform="matrix(-1 0 0 1 -459.875 -1303)">
				<stop  offset="0" style="stop-color:#000000;stop-opacity:0.6"/>
				<stop  offset="1" style="stop-color:#000000"/>
			</linearGradient>
			<path opacity="0.1" fill="none" stroke="url(#SVGID_7_)" stroke-miterlimit="10" enable-background="new    " d="M80.727,16.537
				c4.094,0,7.425-3.399,7.425-7.5s-3.331-7.5-7.425-7.5H43.968c-4.094,0-7.425,3.398-7.425,7.5c0,4.101,3.331,7.5,7.425,7.5H80.727
				z"/>
			
				<linearGradient id="SVGID_8_" gradientUnits="userSpaceOnUse" x1="-522.2222" y1="1319.0372" x2="-522.2222" y2="1305.0372" gradientTransform="matrix(-1 0 0 1 -459.875 -1303)">
				<stop  offset="0" style="stop-color:#000000;stop-opacity:0.6"/>
				<stop  offset="1" style="stop-color:#000000"/>
			</linearGradient>
			<path opacity="0.05" fill="none" stroke="url(#SVGID_8_)" stroke-miterlimit="10" enable-background="new    " d="M80.727,15.537
				c3.508,0,6.363-2.985,6.363-6.5s-2.854-6.5-6.363-6.5H43.968c-3.508,0-6.363,2.985-6.363,6.5s2.854,6.5,6.363,6.5H80.727z"/>
			<g>
				<g opacity="0.3">
					<line fill="none" stroke="#000000" stroke-width="2" stroke-miterlimit="10" x1="72" y1="3.037" x2="72" y2="13.037"/>
				</g>
				<g>
					<line fill="none" stroke="#898989" stroke-width="2" stroke-miterlimit="10" x1="72" y1="4.037" x2="72" y2="14.037"/>
				</g>
			</g>
		</g>
	</g>
	<g>
		<path opacity="0.1" enable-background="new    " d="M37,8.982c0-4.963,4.038-9,9-9s9,4.037,9,9s-4.038,9-9,9S37,13.944,37,8.982z
			 M38.059,8.982c0,4.379,3.562,7.941,7.941,7.941s7.941-3.562,7.941-7.941S50.379,1.041,46,1.041S38.059,4.603,38.059,8.982z"/>
		<g>
			<path opacity="0.1" enable-background="new    " d="M44,17.982c-4.962,0-9-4.038-9-9s4.038-9,9-9s9,4.037,9,9
				S48.962,17.982,44,17.982z M44,1.041c-4.379,0-7.941,3.562-7.941,7.941s3.562,7.941,7.941,7.941s7.941-3.562,7.941-7.941
				S48.379,1.041,44,1.041z"/>
			<g>
				<path opacity="0.8" enable-background="new    " d="M45,17.982c-4.962,0-9-4.038-9-9s4.038-9,9-9s9,4.037,9,9
					S49.962,17.982,45,17.982z M45,1.041c-4.379,0-7.941,3.562-7.941,7.941s3.562,7.941,7.941,7.941s7.941-3.562,7.941-7.941
					S49.379,1.041,45,1.041z"/>
				<g>
					
						<linearGradient id="SVGID_9_" gradientUnits="userSpaceOnUse" x1="494" y1="1319.9823" x2="494" y2="1303.9823" gradientTransform="matrix(1 0 0 1 -449 -1303)">
						<stop  offset="0" style="stop-color:#464342"/>
						<stop  offset="1" style="stop-color:#1E1E1E"/>
					</linearGradient>
					<circle fill="url(#SVGID_9_)" cx="45" cy="8.982" r="8"/>
					
						<linearGradient id="SVGID_10_" gradientUnits="userSpaceOnUse" x1="494" y1="1319.9823" x2="494" y2="1303.9823" gradientTransform="matrix(1 0 0 1 -449 -1303)">
						<stop  offset="0" style="stop-color:#FFFFFF;stop-opacity:0.5"/>
						<stop  offset="1" style="stop-color:#FFFFFF"/>
					</linearGradient>
					
						<ellipse opacity="0.1" fill="none" stroke="url(#SVGID_10_)" stroke-miterlimit="10" enable-background="new    " cx="45" cy="8.982" rx="7.5" ry="7.5"/>
				</g>
			</g>
		</g>
	</g>
</g>
</svg>
