<?xml version="1.0" encoding="utf-8"?>
<!-- Generator: Adobe Illustrator 17.0.0, SVG Export Plug-In . SVG Version: 6.00 Build 0)  -->
<!DOCTYPE svg PUBLIC "-//W3C//DTD SVG 1.1//EN" "http://www.w3.org/Graphics/SVG/1.1/DTD/svg11.dtd">
<svg version="1.1"
	 id="svg2" xmlns:cc="http://creativecommons.org/ns#" xmlns:sodipodi="http://sodipodi.sourceforge.net/DTD/sodipodi-0.dtd" xmlns:svg="http://www.w3.org/2000/svg" xmlns:dc="http://purl.org/dc/elements/1.1/" xmlns:inkscape="http://www.inkscape.org/namespaces/inkscape" xmlns:rdf="http://www.w3.org/1999/02/22-rdf-syntax-ns#" inkscape:export-xdpi="90" inkscape:export-ydpi="90" inkscape:export-filename="/usr/share/themes/Gnome-Cupertino/gtk-3.0/assets/switch-off.png" sodipodi:docname="switch-on.svg" inkscape:version="0.48.3.1 r9886"
	 xmlns="http://www.w3.org/2000/svg" xmlns:xlink="http://www.w3.org/1999/xlink" x="0px" y="0px" width="56px" height="20px"
	 viewBox="0 0 56 20" enable-background="new 0 0 56 20" xml:space="preserve">
<g>
	<g>
		<g>
			<g opacity="0.05">
				<path fill="#FFFFFF" d="M52.48,11c0,4.694-3.8,8.5-8.488,8.5H11.633c-4.688,0-8.488-3.806-8.488-8.5l0,0
					c0-4.694,3.8-8.5,8.488-8.5h32.36C48.68,2.5,52.48,6.306,52.48,11L52.48,11z"/>
				<path fill="none" stroke="#FFFFFF" stroke-width="1.0714" stroke-miterlimit="10" d="M52.48,11c0,4.694-3.8,8.5-8.488,8.5
					H11.633c-4.688,0-8.488-3.806-8.488-8.5l0,0c0-4.694,3.8-8.5,8.488-8.5h32.36C48.68,2.5,52.48,6.306,52.48,11L52.48,11z"/>
			</g>
			<g>
				
					<linearGradient id="SVGID_1_" gradientUnits="userSpaceOnUse" x1="476.8125" y1="1321.5" x2="476.8125" y2="1304.5" gradientTransform="matrix(1 0 0 1 -449 -1303)">
					<stop  offset="0" style="stop-color:#5AAEE1"/>
					<stop  offset="0.7127" style="stop-color:#0064B1"/>
					<stop  offset="1" style="stop-color:#003993"/>
				</linearGradient>
				<path fill="url(#SVGID_1_)" d="M52.48,10c0,4.694-3.8,8.5-8.488,8.5H11.633c-4.688,0-8.488-3.806-8.488-8.5l0,0
					c0-4.694,3.8-8.5,8.488-8.5h32.36C48.68,1.5,52.48,5.306,52.48,10L52.48,10z"/>
				<path fill="none" stroke="#111111" stroke-width="1.0714" stroke-miterlimit="10" d="M52.48,10c0,4.694-3.8,8.5-8.488,8.5
					H11.633c-4.688,0-8.488-3.806-8.488-8.5l0,0c0-4.694,3.8-8.5,8.488-8.5h32.36C48.68,1.5,52.48,5.306,52.48,10L52.48,10z"/>
			</g>
		</g>
		
			<linearGradient id="SVGID_2_" gradientUnits="userSpaceOnUse" x1="476.8125" y1="1320.937" x2="476.8125" y2="1305.061" gradientTransform="matrix(1 0 0 1 -449 -1303)">
			<stop  offset="0" style="stop-color:#000000;stop-opacity:0.6"/>
			<stop  offset="1" style="stop-color:#000000"/>
		</linearGradient>
		<path opacity="0.2" fill="none" stroke="url(#SVGID_2_)" stroke-miterlimit="10" enable-background="new    " d="M11.633,17.437
			c-4.094,0-7.425-3.337-7.425-7.438s3.331-7.438,7.425-7.438h32.359c4.094,0,7.425,3.336,7.425,7.438
			c0,4.101-3.331,7.438-7.425,7.438H11.633z"/>
		
			<linearGradient id="SVGID_3_" gradientUnits="userSpaceOnUse" x1="476.8125" y1="1319.875" x2="476.8125" y2="1306.125" gradientTransform="matrix(1 0 0 1 -449 -1303)">
			<stop  offset="0" style="stop-color:#000000;stop-opacity:0.6"/>
			<stop  offset="1" style="stop-color:#000000"/>
		</linearGradient>
		<path opacity="0.1" fill="none" stroke="url(#SVGID_3_)" stroke-miterlimit="10" enable-background="new    " d="M11.633,16.375
			c-3.508,0-6.363-2.86-6.363-6.375s2.855-6.375,6.363-6.375h32.359c3.508,0,6.363,2.86,6.363,6.375s-2.854,6.375-6.363,6.375
			H11.633z"/>
	</g>
	<g>
		<path opacity="0.8" enable-background="new    " d="M43.855,19c-4.962,0-9-4.038-9-9s4.038-9,9-9s9,4.037,9,9S48.817,19,43.855,19
			z M43.855,2.059c-4.379,0-7.941,3.562-7.941,7.941s3.562,7.941,7.941,7.941s7.941-3.562,7.941-7.941S48.234,2.059,43.855,2.059z"
			/>
		<g>
			
				<linearGradient id="SVGID_4_" gradientUnits="userSpaceOnUse" x1="492.855" y1="1321" x2="492.855" y2="1305" gradientTransform="matrix(1 0 0 1 -449 -1303)">
				<stop  offset="0" style="stop-color:#464342"/>
				<stop  offset="1" style="stop-color:#1E1E1E"/>
			</linearGradient>
			<circle fill="url(#SVGID_4_)" cx="43.855" cy="10" r="8"/>
			
				<linearGradient id="SVGID_5_" gradientUnits="userSpaceOnUse" x1="492.855" y1="1320.694" x2="492.855" y2="1305.306" gradientTransform="matrix(1 0 0 1 -449 -1303)">
				<stop  offset="0" style="stop-color:#FFFFFF;stop-opacity:0.5"/>
				<stop  offset="1" style="stop-color:#FFFFFF"/>
			</linearGradient>
			
				<ellipse opacity="0.1" fill="none" stroke="url(#SVGID_5_)" stroke-miterlimit="10" enable-background="new    " cx="43.855" cy="10" rx="7.187" ry="7.194"/>
		</g>
	</g>
</g>
<g>
	<g opacity="0.3">
		<path d="M18,14c-2.757,0-5-2.243-5-5s2.243-5,5-5s5,2.243,5,5S20.757,14,18,14z M18,6c-1.654,0-3,1.346-3,3s1.346,3,3,3
			s3-1.346,3-3S19.654,6,18,6z"/>
	</g>
	<g>
		<g>
			<path fill="#FFFFFF" d="M18,15c-2.757,0-5-2.243-5-5s2.243-5,5-5s5,2.243,5,5S20.757,15,18,15z M18,7c-1.654,0-3,1.346-3,3
				s1.346,3,3,3s3-1.346,3-3S19.654,7,18,7z"/>
		</g>
	</g>
</g>
</svg>
