<?xml version="1.0" encoding="UTF-8"?>
<svg width="24px" height="24px" viewBox="0 0 24 24" version="1.1" xmlns="http://www.w3.org/2000/svg" xmlns:xlink="http://www.w3.org/1999/xlink">
    <title>places/128/deepin-launcher</title>
    <defs>
        <filter x="-10.3%" y="-5.1%" width="120.5%" height="120.5%" filterUnits="objectBoundingBox" id="filter-1">
            <feOffset dx="0" dy="1" in="SourceAlpha" result="shadowOffsetOuter1"></feOffset>
            <feGaussianBlur stdDeviation="0.5" in="shadowOffsetOuter1" result="shadowBlurOuter1"></feGaussianBlur>
            <feColorMatrix values="0 0 0 0 0   0 0 0 0 0   0 0 0 0 0  0 0 0 0.2 0" type="matrix" in="shadowBlurOuter1" result="shadowMatrixOuter1"></feColorMatrix>
            <feMerge>
                <feMergeNode in="shadowMatrixOuter1"></feMergeNode>
                <feMergeNode in="SourceGraphic"></feMergeNode>
            </feMerge>
        </filter>
        <linearGradient x1="36.374%" y1="10.403%" x2="36.374%" y2="93.2402425%" id="linearGradient-2">
            <stop stop-color="#FFFFFF" offset="0%"></stop>
            <stop stop-color="#E0EEFF" offset="100%"></stop>
        </linearGradient>
        <path d="M3.8458278,0 L15.6541722,2.26708535e-16 C16.9914503,-1.31724187e-16 17.4763797,0.139238417 17.9652686,0.400699056 C18.4541574,0.662159695 18.8378403,1.04584256 19.0993009,1.53473144 C19.3607616,2.02362033 19.5,2.50854969 19.5,3.8458278 L19.5,15.6541722 C19.5,16.9914503 19.3607616,17.4763797 19.0993009,17.9652686 C18.8378403,18.4541574 18.4541574,18.8378403 17.9652686,19.0993009 C17.4763797,19.3607616 16.9914503,19.5 15.6541722,19.5 L3.8458278,19.5 C2.50854969,19.5 2.02362033,19.3607616 1.53473144,19.0993009 C1.04584256,18.8378403 0.662159695,18.4541574 0.400699056,17.9652686 C0.139238417,17.4763797 0,16.9914503 0,15.6541722 L0,3.8458278 C0,2.50854969 0.139238417,2.02362033 0.400699056,1.53473144 C0.662159695,1.04584256 1.04584256,0.662159695 1.53473144,0.400699056 C2.02362033,0.139238417 2.50854969,0 3.8458278,0 Z" id="path-3"></path>
        <filter x="-7.7%" y="-7.7%" width="115.4%" height="115.4%" filterUnits="objectBoundingBox" id="filter-4">
            <feGaussianBlur stdDeviation="1" in="SourceAlpha" result="shadowBlurInner1"></feGaussianBlur>
            <feOffset dx="0" dy="-1" in="shadowBlurInner1" result="shadowOffsetInner1"></feOffset>
            <feComposite in="shadowOffsetInner1" in2="SourceAlpha" operator="arithmetic" k2="-1" k3="1" result="shadowInnerInner1"></feComposite>
            <feColorMatrix values="0 0 0 0 0.0561852184   0 0 0 0 0.342940374   0 0 0 0 0.536401721  0 0 0 0.3 0" type="matrix" in="shadowInnerInner1"></feColorMatrix>
        </filter>
        <linearGradient x1="50%" y1="18.0873075%" x2="50%" y2="100%" id="linearGradient-5">
            <stop stop-color="#FFFFFF" stop-opacity="0.706853693" offset="0%"></stop>
            <stop stop-color="#000000" stop-opacity="0.106537505" offset="100%"></stop>
        </linearGradient>
        <linearGradient x1="100%" y1="0%" x2="0%" y2="100%" id="linearGradient-6">
            <stop stop-color="#ECD935" offset="0%"></stop>
            <stop stop-color="#3BCAB9" offset="100%"></stop>
        </linearGradient>
        <linearGradient x1="0%" y1="0%" x2="100%" y2="100%" id="linearGradient-7">
            <stop stop-color="#FFC823" offset="0%"></stop>
            <stop stop-color="#F1397A" offset="100%"></stop>
        </linearGradient>
        <linearGradient x1="0%" y1="0%" x2="98.3846296%" y2="98.3846296%" id="linearGradient-8">
            <stop stop-color="#00B8E8" offset="0%"></stop>
            <stop stop-color="#4B5BE6" offset="100%"></stop>
        </linearGradient>
        <linearGradient x1="24.3057561%" y1="20.6712517%" x2="100%" y2="100%" id="linearGradient-9">
            <stop stop-color="#FF6871" offset="0%"></stop>
            <stop stop-color="#E336A7" offset="100%"></stop>
        </linearGradient>
        <linearGradient x1="0%" y1="0%" x2="100%" y2="100%" id="linearGradient-10">
            <stop stop-color="#FFC823" offset="0%"></stop>
            <stop stop-color="#FC377C" offset="100%"></stop>
        </linearGradient>
        <linearGradient x1="96.3130599%" y1="87.1171785%" x2="-18.9364413%" y2="3.48213017%" id="linearGradient-11">
            <stop stop-color="#D124B9" offset="0%"></stop>
            <stop stop-color="#4943F1" offset="100%"></stop>
        </linearGradient>
        <linearGradient x1="0%" y1="0%" x2="99.8224432%" y2="99.8224432%" id="linearGradient-12">
            <stop stop-color="#00B8E8" offset="0%"></stop>
            <stop stop-color="#485AF2" offset="100%"></stop>
        </linearGradient>
        <linearGradient x1="22.0628927%" y1="18.3206959%" x2="100%" y2="100%" id="linearGradient-13">
            <stop stop-color="#F4656E" offset="0%"></stop>
            <stop stop-color="#F028AA" offset="100%"></stop>
        </linearGradient>
    </defs>
    <g id="places/128/deepin-launcher" stroke="none" fill="none">
        <g id="Guide/128"></g>
        <g id="deepin-launcher" filter="url(#filter-1)" stroke-width="1" fill-rule="evenodd" transform="translate(2.25, 2.25)">
            <g id="矩形" fill-rule="nonzero">
                <use fill="url(#linearGradient-2)" xlink:href="#path-3"></use>
                <use fill="black" fill-opacity="1" filter="url(#filter-4)" xlink:href="#path-3"></use>
            </g>
            <path d="M15.6541722,0 C16.9914503,0 17.4763797,0.139238417 17.9652686,0.400699056 C18.4541574,0.662159695 18.8378403,1.04584256 19.0993009,1.53473144 C19.3607616,2.02362033 19.5,2.50854969 19.5,3.8458278 L19.5,15.6541722 C19.5,16.9914503 19.3607616,17.4763797 19.0993009,17.9652686 C18.8378403,18.4541574 18.4541574,18.8378403 17.9652686,19.0993009 C17.4763797,19.3607616 16.9914503,19.5 15.6541722,19.5 L3.8458278,19.5 C2.50854969,19.5 2.02362033,19.3607616 1.53473144,19.0993009 C1.04584256,18.8378403 0.662159695,18.4541574 0.400699056,17.9652686 C0.139238417,17.4763797 0,16.9914503 0,15.6541722 L0,3.8458278 C0,2.50854969 0.139238417,2.02362033 0.400699056,1.53473144 C0.662159695,1.04584256 1.04584256,0.662159695 1.53473144,0.400699056 C2.02362033,0.139238417 2.50854969,0 3.8458278,0 L15.6541722,0 Z M3.8458278,0.1875 C2.65490874,0.1875 2.14788562,0.285410682 1.62315623,0.56603903 C1.16694268,0.810024707 0.810024707,1.16694268 0.56603903,1.62315623 C0.285410682,2.14788562 0.1875,2.65490874 0.1875,3.8458278 L0.1875,15.6541722 C0.1875,16.8450913 0.285410682,17.3521144 0.56603903,17.8768438 C0.810024707,18.3330573 1.16694268,18.6899753 1.62315623,18.933961 C2.14788562,19.2145893 2.65490874,19.3125 3.8458278,19.3125 L15.6541722,19.3125 C16.8450913,19.3125 17.3521144,19.2145893 17.8768438,18.933961 C18.3330573,18.6899753 18.6899753,18.3330573 18.933961,17.8768438 C19.2145893,17.3521144 19.3125,16.8450913 19.3125,15.6541722 L19.3125,3.8458278 C19.3125,2.65490874 19.2145893,2.14788562 18.933961,1.62315623 C18.6899753,1.16694268 18.3330573,0.810024707 17.8768438,0.56603903 C17.3521144,0.285410682 16.8450913,0.1875 15.6541722,0.1875 L3.8458278,0.1875 Z" id="矩形" fill="url(#linearGradient-5)" fill-rule="nonzero"></path>
            <g id="编组" transform="translate(3.3162, 3.1287)" fill-rule="nonzero">
                <path d="M1.15491306,0.433820344 L3.08772763,0.433820344 C3.33846728,0.433820344 3.42939153,0.459927547 3.5210582,0.508951417 C3.61272486,0.557975286 3.6846654,0.629915823 3.73368927,0.721582489 C3.78271314,0.813249156 3.80882034,0.90417341 3.80882034,1.15491306 L3.80882034,3.08772763 C3.80882034,3.33846728 3.78271314,3.42939153 3.73368927,3.5210582 C3.6846654,3.61272486 3.61272486,3.6846654 3.5210582,3.73368927 C3.42939153,3.78271314 3.33846728,3.80882034 3.08772763,3.80882034 L1.15491306,3.80882034 C0.90417341,3.80882034 0.813249156,3.78271314 0.721582489,3.73368927 C0.629915823,3.6846654 0.557975286,3.61272486 0.508951417,3.5210582 C0.459927547,3.42939153 0.433820344,3.33846728 0.433820344,3.08772763 L0.433820344,1.15491306 C0.433820344,0.90417341 0.459927547,0.813249156 0.508951417,0.721582489 C0.557975286,0.629915823 0.629915823,0.557975286 0.721582489,0.508951417 C0.813249156,0.459927547 0.90417341,0.433820344 1.15491306,0.433820344 Z" id="矩形" fill="url(#linearGradient-6)" transform="translate(2.1213, 2.1213) rotate(-360) translate(-2.1213, -2.1213)"></path>
                <path d="M3.08772763,0.433820344 C3.33846728,0.433820344 3.42939153,0.459927547 3.5210582,0.508951416 C3.61272486,0.557975286 3.6846654,0.629915823 3.73368927,0.721582489 C3.78271314,0.813249156 3.80882034,0.90417341 3.80882034,1.15491306 L3.80882034,3.08772763 C3.80882034,3.33846728 3.78271314,3.42939153 3.73368927,3.5210582 C3.6846654,3.61272486 3.61272486,3.6846654 3.5210582,3.73368927 C3.42939153,3.78271314 3.33846728,3.80882034 3.08772763,3.80882034 L1.15491306,3.80882034 C0.90417341,3.80882034 0.813249156,3.78271314 0.721582489,3.73368927 C0.629915823,3.6846654 0.557975286,3.61272486 0.508951416,3.5210582 C0.459927547,3.42939153 0.433820344,3.33846728 0.433820344,3.08772763 L0.433820344,1.15491306 C0.433820344,0.90417341 0.459927547,0.813249156 0.508951416,0.721582489 C0.557975286,0.629915823 0.629915823,0.557975286 0.721582489,0.508951416 C0.813249156,0.459927547 0.90417341,0.433820344 1.15491306,0.433820344 L3.08772763,0.433820344 Z M1.15491306,0.621320344 C0.954614263,0.621320344 0.883306585,0.635090491 0.810007275,0.674291391 C0.751015948,0.705840299 0.705840299,0.751015948 0.674291391,0.810007275 C0.635090491,0.883306585 0.621320344,0.954614263 0.621320344,1.15491306 L0.621320344,3.08772763 C0.621320344,3.28802642 0.635090491,3.3593341 0.674291391,3.43263341 C0.705840299,3.49162474 0.751015948,3.53680039 0.810007275,3.5683493 C0.883306585,3.6075502 0.954614263,3.62132034 1.15491306,3.62132034 L3.08772763,3.62132034 C3.28802642,3.62132034 3.3593341,3.6075502 3.43263341,3.5683493 C3.49162474,3.53680039 3.53680039,3.49162474 3.5683493,3.43263341 C3.6075502,3.3593341 3.62132034,3.28802642 3.62132034,3.08772763 L3.62132034,1.15491306 C3.62132034,0.954614263 3.6075502,0.883306585 3.5683493,0.810007275 C3.53680039,0.751015948 3.49162474,0.705840299 3.43263341,0.674291391 C3.3593341,0.635090491 3.28802642,0.621320344 3.08772763,0.621320344 L1.15491306,0.621320344 Z" id="矩形" fill-opacity="0.2" fill="#000000" transform="translate(2.1213, 2.1213) rotate(-360) translate(-2.1213, -2.1213)"></path>
                <path d="M1.15491306,4.93382034 L3.08772763,4.93382034 C3.33846728,4.93382034 3.42939153,4.95992755 3.5210582,5.00895142 C3.61272486,5.05797529 3.6846654,5.12991582 3.73368927,5.22158249 C3.78271314,5.31324916 3.80882034,5.40417341 3.80882034,5.65491306 L3.80882034,7.58772763 C3.80882034,7.83846728 3.78271314,7.92939153 3.73368927,8.0210582 C3.6846654,8.11272486 3.61272486,8.1846654 3.5210582,8.23368927 C3.42939153,8.28271314 3.33846728,8.30882034 3.08772763,8.30882034 L1.15491306,8.30882034 C0.90417341,8.30882034 0.813249156,8.28271314 0.721582489,8.23368927 C0.629915823,8.1846654 0.557975286,8.11272486 0.508951417,8.0210582 C0.459927547,7.92939153 0.433820344,7.83846728 0.433820344,7.58772763 L0.433820344,5.65491306 C0.433820344,5.40417341 0.459927547,5.31324916 0.508951417,5.22158249 C0.557975286,5.12991582 0.629915823,5.05797529 0.721582489,5.00895142 C0.813249156,4.95992755 0.90417341,4.93382034 1.15491306,4.93382034 Z" id="矩形" fill="url(#linearGradient-7)" transform="translate(2.1213, 6.6213) rotate(-360) translate(-2.1213, -6.6213)"></path>
                <path d="M3.08772763,4.93382034 C3.33846728,4.93382034 3.42939153,4.95992755 3.5210582,5.00895142 C3.61272486,5.05797529 3.6846654,5.12991582 3.73368927,5.22158249 C3.78271314,5.31324916 3.80882034,5.40417341 3.80882034,5.65491306 L3.80882034,7.58772763 C3.80882034,7.83846728 3.78271314,7.92939153 3.73368927,8.0210582 C3.6846654,8.11272486 3.61272486,8.1846654 3.5210582,8.23368927 C3.42939153,8.28271314 3.33846728,8.30882034 3.08772763,8.30882034 L1.15491306,8.30882034 C0.90417341,8.30882034 0.813249156,8.28271314 0.721582489,8.23368927 C0.629915823,8.1846654 0.557975286,8.11272486 0.508951416,8.0210582 C0.459927547,7.92939153 0.433820344,7.83846728 0.433820344,7.58772763 L0.433820344,5.65491306 C0.433820344,5.40417341 0.459927547,5.31324916 0.508951416,5.22158249 C0.557975286,5.12991582 0.629915823,5.05797529 0.721582489,5.00895142 C0.813249156,4.95992755 0.90417341,4.93382034 1.15491306,4.93382034 L3.08772763,4.93382034 Z M1.15491306,5.12132034 C0.954614263,5.12132034 0.883306585,5.13509049 0.810007275,5.17429139 C0.751015948,5.2058403 0.705840299,5.25101595 0.674291391,5.31000728 C0.635090491,5.38330659 0.621320344,5.45461426 0.621320344,5.65491306 L0.621320344,7.58772763 C0.621320344,7.78802642 0.635090491,7.8593341 0.674291391,7.93263341 C0.705840299,7.99162474 0.751015948,8.03680039 0.810007275,8.0683493 C0.883306585,8.1075502 0.954614263,8.12132034 1.15491306,8.12132034 L3.08772763,8.12132034 C3.28802642,8.12132034 3.3593341,8.1075502 3.43263341,8.0683493 C3.49162474,8.03680039 3.53680039,7.99162474 3.5683493,7.93263341 C3.6075502,7.8593341 3.62132034,7.78802642 3.62132034,7.58772763 L3.62132034,5.65491306 C3.62132034,5.45461426 3.6075502,5.38330659 3.5683493,5.31000728 C3.53680039,5.25101595 3.49162474,5.2058403 3.43263341,5.17429139 C3.3593341,5.13509049 3.28802642,5.12132034 3.08772763,5.12132034 L1.15491306,5.12132034 Z" id="矩形" fill-opacity="0.2" fill="#000000" transform="translate(2.1213, 6.6213) rotate(-360) translate(-2.1213, -6.6213)"></path>
                <path d="M1.34241306,9.62132034 L2.90022763,9.62132034 C3.15096728,9.62132034 3.24189153,9.64742755 3.3335582,9.69645142 C3.42522486,9.74547529 3.4971654,9.81741582 3.54618927,9.90908249 C3.59521314,10.0007492 3.62132034,10.0916734 3.62132034,10.3424131 L3.62132034,11.9002276 C3.62132034,12.1509673 3.59521314,12.2418915 3.54618927,12.3335582 C3.4971654,12.4252249 3.42522486,12.4971654 3.3335582,12.5461893 C3.24189153,12.5952131 3.15096728,12.6213203 2.90022763,12.6213203 L1.34241306,12.6213203 C1.09167341,12.6213203 1.00074916,12.5952131 0.909082489,12.5461893 C0.817415823,12.4971654 0.745475286,12.4252249 0.696451417,12.3335582 C0.647427547,12.2418915 0.621320344,12.1509673 0.621320344,11.9002276 L0.621320344,10.3424131 C0.621320344,10.0916734 0.647427547,10.0007492 0.696451417,9.90908249 C0.745475286,9.81741582 0.817415823,9.74547529 0.909082489,9.69645142 C1.00074916,9.64742755 1.09167341,9.62132034 1.34241306,9.62132034 Z" id="矩形" fill="url(#linearGradient-8)" transform="translate(2.1213, 11.1213) rotate(-315) translate(-2.1213, -11.1213)"></path>
                <path d="M2.90022763,9.62132034 C3.15096728,9.62132034 3.24189153,9.64742755 3.3335582,9.69645142 C3.42522486,9.74547529 3.4971654,9.81741582 3.54618927,9.90908249 C3.59521314,10.0007492 3.62132034,10.0916734 3.62132034,10.3424131 L3.62132034,11.9002276 C3.62132034,12.1509673 3.59521314,12.2418915 3.54618927,12.3335582 C3.4971654,12.4252249 3.42522486,12.4971654 3.3335582,12.5461893 C3.24189153,12.5952131 3.15096728,12.6213203 2.90022763,12.6213203 L1.34241306,12.6213203 C1.09167341,12.6213203 1.00074916,12.5952131 0.909082489,12.5461893 C0.817415823,12.4971654 0.745475286,12.4252249 0.696451416,12.3335582 C0.647427547,12.2418915 0.621320344,12.1509673 0.621320344,11.9002276 L0.621320344,10.3424131 C0.621320344,10.0916734 0.647427547,10.0007492 0.696451416,9.90908249 C0.745475286,9.81741582 0.817415823,9.74547529 0.909082489,9.69645142 C1.00074916,9.64742755 1.09167341,9.62132034 1.34241306,9.62132034 L2.90022763,9.62132034 Z M1.34241306,9.80882034 C1.14211426,9.80882034 1.07080659,9.82259049 0.997507275,9.86179139 C0.938515948,9.8933403 0.893340299,9.93851595 0.861791391,9.99750728 C0.822590491,10.0708066 0.808820344,10.1421143 0.808820344,10.3424131 L0.808820344,11.9002276 C0.808820344,12.1005264 0.822590491,12.1718341 0.861791391,12.2451334 C0.893340299,12.3041247 0.938515948,12.3493004 0.997507275,12.3808493 C1.07080659,12.4200502 1.14211426,12.4338203 1.34241306,12.4338203 L2.90022763,12.4338203 C3.10052642,12.4338203 3.1718341,12.4200502 3.24513341,12.3808493 C3.30412474,12.3493004 3.34930039,12.3041247 3.3808493,12.2451334 C3.4200502,12.1718341 3.43382034,12.1005264 3.43382034,11.9002276 L3.43382034,10.3424131 C3.43382034,10.1421143 3.4200502,10.0708066 3.3808493,9.99750728 C3.34930039,9.93851595 3.30412474,9.8933403 3.24513341,9.86179139 C3.1718341,9.82259049 3.10052642,9.80882034 2.90022763,9.80882034 L1.34241306,9.80882034 Z" id="矩形" fill-opacity="0.2" fill="#000000" transform="translate(2.1213, 11.1213) rotate(-315) translate(-2.1213, -11.1213)"></path>
                <path d="M5.84241306,0.621320344 L7.40022763,0.621320344 C7.65096728,0.621320344 7.74189153,0.647427547 7.8335582,0.696451417 C7.92522486,0.745475286 7.9971654,0.817415823 8.04618927,0.909082489 C8.09521314,1.00074916 8.12132034,1.09167341 8.12132034,1.34241306 L8.12132034,2.90022763 C8.12132034,3.15096728 8.09521314,3.24189153 8.04618927,3.3335582 C7.9971654,3.42522486 7.92522486,3.4971654 7.8335582,3.54618927 C7.74189153,3.59521314 7.65096728,3.62132034 7.40022763,3.62132034 L5.84241306,3.62132034 C5.59167341,3.62132034 5.50074916,3.59521314 5.40908249,3.54618927 C5.31741582,3.4971654 5.24547529,3.42522486 5.19645142,3.3335582 C5.14742755,3.24189153 5.12132034,3.15096728 5.12132034,2.90022763 L5.12132034,1.34241306 C5.12132034,1.09167341 5.14742755,1.00074916 5.19645142,0.909082489 C5.24547529,0.817415823 5.31741582,0.745475286 5.40908249,0.696451417 C5.50074916,0.647427547 5.59167341,0.621320344 5.84241306,0.621320344 Z" id="矩形" fill="url(#linearGradient-9)" transform="translate(6.6213, 2.1213) rotate(-315) translate(-6.6213, -2.1213)"></path>
                <path d="M7.40022763,0.621320344 C7.65096728,0.621320344 7.74189153,0.647427547 7.8335582,0.696451416 C7.92522486,0.745475286 7.9971654,0.817415823 8.04618927,0.909082489 C8.09521314,1.00074916 8.12132034,1.09167341 8.12132034,1.34241306 L8.12132034,2.90022763 C8.12132034,3.15096728 8.09521314,3.24189153 8.04618927,3.3335582 C7.9971654,3.42522486 7.92522486,3.4971654 7.8335582,3.54618927 C7.74189153,3.59521314 7.65096728,3.62132034 7.40022763,3.62132034 L5.84241306,3.62132034 C5.59167341,3.62132034 5.50074916,3.59521314 5.40908249,3.54618927 C5.31741582,3.4971654 5.24547529,3.42522486 5.19645142,3.3335582 C5.14742755,3.24189153 5.12132034,3.15096728 5.12132034,2.90022763 L5.12132034,1.34241306 C5.12132034,1.09167341 5.14742755,1.00074916 5.19645142,0.909082489 C5.24547529,0.817415823 5.31741582,0.745475286 5.40908249,0.696451416 C5.50074916,0.647427547 5.59167341,0.621320344 5.84241306,0.621320344 L7.40022763,0.621320344 Z M5.84241306,0.808820344 C5.64211426,0.808820344 5.57080659,0.822590491 5.49750728,0.861791391 C5.43851595,0.893340299 5.3933403,0.938515948 5.36179139,0.997507275 C5.32259049,1.07080659 5.30882034,1.14211426 5.30882034,1.34241306 L5.30882034,2.90022763 C5.30882034,3.10052642 5.32259049,3.1718341 5.36179139,3.24513341 C5.3933403,3.30412474 5.43851595,3.34930039 5.49750728,3.3808493 C5.57080659,3.4200502 5.64211426,3.43382034 5.84241306,3.43382034 L7.40022763,3.43382034 C7.60052642,3.43382034 7.6718341,3.4200502 7.74513341,3.3808493 C7.80412474,3.34930039 7.84930039,3.30412474 7.8808493,3.24513341 C7.9200502,3.1718341 7.93382034,3.10052642 7.93382034,2.90022763 L7.93382034,1.34241306 C7.93382034,1.14211426 7.9200502,1.07080659 7.8808493,0.997507275 C7.84930039,0.938515948 7.80412474,0.893340299 7.74513341,0.861791391 C7.6718341,0.822590491 7.60052642,0.808820344 7.40022763,0.808820344 L5.84241306,0.808820344 Z" id="矩形" fill-opacity="0.2" fill="#000000" transform="translate(6.6213, 2.1213) rotate(-315) translate(-6.6213, -2.1213)"></path>
                <path d="M10.1549131,0.433820344 L12.0877276,0.433820344 C12.3384673,0.433820344 12.4293915,0.459927547 12.5210582,0.508951417 C12.6127249,0.557975286 12.6846654,0.629915823 12.7336893,0.721582489 C12.7827131,0.813249156 12.8088203,0.90417341 12.8088203,1.15491306 L12.8088203,3.08772763 C12.8088203,3.33846728 12.7827131,3.42939153 12.7336893,3.5210582 C12.6846654,3.61272486 12.6127249,3.6846654 12.5210582,3.73368927 C12.4293915,3.78271314 12.3384673,3.80882034 12.0877276,3.80882034 L10.1549131,3.80882034 C9.90417341,3.80882034 9.81324916,3.78271314 9.72158249,3.73368927 C9.62991582,3.6846654 9.55797529,3.61272486 9.50895142,3.5210582 C9.45992755,3.42939153 9.43382034,3.33846728 9.43382034,3.08772763 L9.43382034,1.15491306 C9.43382034,0.90417341 9.45992755,0.813249156 9.50895142,0.721582489 C9.55797529,0.629915823 9.62991582,0.557975286 9.72158249,0.508951417 C9.81324916,0.459927547 9.90417341,0.433820344 10.1549131,0.433820344 Z" id="矩形" fill="url(#linearGradient-10)" transform="translate(11.1213, 2.1213) rotate(-360) translate(-11.1213, -2.1213)"></path>
                <path d="M12.0877276,0.433820344 C12.3384673,0.433820344 12.4293915,0.459927547 12.5210582,0.508951416 C12.6127249,0.557975286 12.6846654,0.629915823 12.7336893,0.721582489 C12.7827131,0.813249156 12.8088203,0.90417341 12.8088203,1.15491306 L12.8088203,3.08772763 C12.8088203,3.33846728 12.7827131,3.42939153 12.7336893,3.5210582 C12.6846654,3.61272486 12.6127249,3.6846654 12.5210582,3.73368927 C12.4293915,3.78271314 12.3384673,3.80882034 12.0877276,3.80882034 L10.1549131,3.80882034 C9.90417341,3.80882034 9.81324916,3.78271314 9.72158249,3.73368927 C9.62991582,3.6846654 9.55797529,3.61272486 9.50895142,3.5210582 C9.45992755,3.42939153 9.43382034,3.33846728 9.43382034,3.08772763 L9.43382034,1.15491306 C9.43382034,0.90417341 9.45992755,0.813249156 9.50895142,0.721582489 C9.55797529,0.629915823 9.62991582,0.557975286 9.72158249,0.508951416 C9.81324916,0.459927547 9.90417341,0.433820344 10.1549131,0.433820344 L12.0877276,0.433820344 Z M10.1549131,0.621320344 C9.95461426,0.621320344 9.88330659,0.635090491 9.81000728,0.674291391 C9.75101595,0.705840299 9.7058403,0.751015948 9.67429139,0.810007275 C9.63509049,0.883306585 9.62132034,0.954614263 9.62132034,1.15491306 L9.62132034,3.08772763 C9.62132034,3.28802642 9.63509049,3.3593341 9.67429139,3.43263341 C9.7058403,3.49162474 9.75101595,3.53680039 9.81000728,3.5683493 C9.88330659,3.6075502 9.95461426,3.62132034 10.1549131,3.62132034 L12.0877276,3.62132034 C12.2880264,3.62132034 12.3593341,3.6075502 12.4326334,3.5683493 C12.4916247,3.53680039 12.5368004,3.49162474 12.5683493,3.43263341 C12.6075502,3.3593341 12.6213203,3.28802642 12.6213203,3.08772763 L12.6213203,1.15491306 C12.6213203,0.954614263 12.6075502,0.883306585 12.5683493,0.810007275 C12.5368004,0.751015948 12.4916247,0.705840299 12.4326334,0.674291391 C12.3593341,0.635090491 12.2880264,0.621320344 12.0877276,0.621320344 L10.1549131,0.621320344 Z" id="矩形" fill-opacity="0.2" fill="#000000" transform="translate(11.1213, 2.1213) rotate(-360) translate(-11.1213, -2.1213)"></path>
                <path d="M5.65491306,4.93382034 L7.58772763,4.93382034 C7.83846728,4.93382034 7.92939153,4.95992755 8.0210582,5.00895142 C8.11272486,5.05797529 8.1846654,5.12991582 8.23368927,5.22158249 C8.28271314,5.31324916 8.30882034,5.40417341 8.30882034,5.65491306 L8.30882034,7.58772763 C8.30882034,7.83846728 8.28271314,7.92939153 8.23368927,8.0210582 C8.1846654,8.11272486 8.11272486,8.1846654 8.0210582,8.23368927 C7.92939153,8.28271314 7.83846728,8.30882034 7.58772763,8.30882034 L5.65491306,8.30882034 C5.40417341,8.30882034 5.31324916,8.28271314 5.22158249,8.23368927 C5.12991582,8.1846654 5.05797529,8.11272486 5.00895142,8.0210582 C4.95992755,7.92939153 4.93382034,7.83846728 4.93382034,7.58772763 L4.93382034,5.65491306 C4.93382034,5.40417341 4.95992755,5.31324916 5.00895142,5.22158249 C5.05797529,5.12991582 5.12991582,5.05797529 5.22158249,5.00895142 C5.31324916,4.95992755 5.40417341,4.93382034 5.65491306,4.93382034 Z" id="矩形" fill="url(#linearGradient-11)" transform="translate(6.6213, 6.6213) rotate(-360) translate(-6.6213, -6.6213)"></path>
                <path d="M7.58772763,4.93382034 C7.83846728,4.93382034 7.92939153,4.95992755 8.0210582,5.00895142 C8.11272486,5.05797529 8.1846654,5.12991582 8.23368927,5.22158249 C8.28271314,5.31324916 8.30882034,5.40417341 8.30882034,5.65491306 L8.30882034,7.58772763 C8.30882034,7.83846728 8.28271314,7.92939153 8.23368927,8.0210582 C8.1846654,8.11272486 8.11272486,8.1846654 8.0210582,8.23368927 C7.92939153,8.28271314 7.83846728,8.30882034 7.58772763,8.30882034 L5.65491306,8.30882034 C5.40417341,8.30882034 5.31324916,8.28271314 5.22158249,8.23368927 C5.12991582,8.1846654 5.05797529,8.11272486 5.00895142,8.0210582 C4.95992755,7.92939153 4.93382034,7.83846728 4.93382034,7.58772763 L4.93382034,5.65491306 C4.93382034,5.40417341 4.95992755,5.31324916 5.00895142,5.22158249 C5.05797529,5.12991582 5.12991582,5.05797529 5.22158249,5.00895142 C5.31324916,4.95992755 5.40417341,4.93382034 5.65491306,4.93382034 L7.58772763,4.93382034 Z M5.65491306,5.12132034 C5.45461426,5.12132034 5.38330659,5.13509049 5.31000728,5.17429139 C5.25101595,5.2058403 5.2058403,5.25101595 5.17429139,5.31000728 C5.13509049,5.38330659 5.12132034,5.45461426 5.12132034,5.65491306 L5.12132034,7.58772763 C5.12132034,7.78802642 5.13509049,7.8593341 5.17429139,7.93263341 C5.2058403,7.99162474 5.25101595,8.03680039 5.31000728,8.0683493 C5.38330659,8.1075502 5.45461426,8.12132034 5.65491306,8.12132034 L7.58772763,8.12132034 C7.78802642,8.12132034 7.8593341,8.1075502 7.93263341,8.0683493 C7.99162474,8.03680039 8.03680039,7.99162474 8.0683493,7.93263341 C8.1075502,7.8593341 8.12132034,7.78802642 8.12132034,7.58772763 L8.12132034,5.65491306 C8.12132034,5.45461426 8.1075502,5.38330659 8.0683493,5.31000728 C8.03680039,5.25101595 7.99162474,5.2058403 7.93263341,5.17429139 C7.8593341,5.13509049 7.78802642,5.12132034 7.58772763,5.12132034 L5.65491306,5.12132034 Z" id="矩形" fill-opacity="0.2" fill="#000000" transform="translate(6.6213, 6.6213) rotate(-360) translate(-6.6213, -6.6213)"></path>
                <path d="M5.65491306,9.43382034 L7.58772763,9.43382034 C7.83846728,9.43382034 7.92939153,9.45992755 8.0210582,9.50895142 C8.11272486,9.55797529 8.1846654,9.62991582 8.23368927,9.72158249 C8.28271314,9.81324916 8.30882034,9.90417341 8.30882034,10.1549131 L8.30882034,12.0877276 C8.30882034,12.3384673 8.28271314,12.4293915 8.23368927,12.5210582 C8.1846654,12.6127249 8.11272486,12.6846654 8.0210582,12.7336893 C7.92939153,12.7827131 7.83846728,12.8088203 7.58772763,12.8088203 L5.65491306,12.8088203 C5.40417341,12.8088203 5.31324916,12.7827131 5.22158249,12.7336893 C5.12991582,12.6846654 5.05797529,12.6127249 5.00895142,12.5210582 C4.95992755,12.4293915 4.93382034,12.3384673 4.93382034,12.0877276 L4.93382034,10.1549131 C4.93382034,9.90417341 4.95992755,9.81324916 5.00895142,9.72158249 C5.05797529,9.62991582 5.12991582,9.55797529 5.22158249,9.50895142 C5.31324916,9.45992755 5.40417341,9.43382034 5.65491306,9.43382034 Z" id="矩形" fill="url(#linearGradient-6)" transform="translate(6.6213, 11.1213) rotate(-360) translate(-6.6213, -11.1213)"></path>
                <path d="M7.58772763,9.43382034 C7.83846728,9.43382034 7.92939153,9.45992755 8.0210582,9.50895142 C8.11272486,9.55797529 8.1846654,9.62991582 8.23368927,9.72158249 C8.28271314,9.81324916 8.30882034,9.90417341 8.30882034,10.1549131 L8.30882034,12.0877276 C8.30882034,12.3384673 8.28271314,12.4293915 8.23368927,12.5210582 C8.1846654,12.6127249 8.11272486,12.6846654 8.0210582,12.7336893 C7.92939153,12.7827131 7.83846728,12.8088203 7.58772763,12.8088203 L5.65491306,12.8088203 C5.40417341,12.8088203 5.31324916,12.7827131 5.22158249,12.7336893 C5.12991582,12.6846654 5.05797529,12.6127249 5.00895142,12.5210582 C4.95992755,12.4293915 4.93382034,12.3384673 4.93382034,12.0877276 L4.93382034,10.1549131 C4.93382034,9.90417341 4.95992755,9.81324916 5.00895142,9.72158249 C5.05797529,9.62991582 5.12991582,9.55797529 5.22158249,9.50895142 C5.31324916,9.45992755 5.40417341,9.43382034 5.65491306,9.43382034 L7.58772763,9.43382034 Z M5.65491306,9.62132034 C5.45461426,9.62132034 5.38330659,9.63509049 5.31000728,9.67429139 C5.25101595,9.7058403 5.2058403,9.75101595 5.17429139,9.81000728 C5.13509049,9.88330659 5.12132034,9.95461426 5.12132034,10.1549131 L5.12132034,12.0877276 C5.12132034,12.2880264 5.13509049,12.3593341 5.17429139,12.4326334 C5.2058403,12.4916247 5.25101595,12.5368004 5.31000728,12.5683493 C5.38330659,12.6075502 5.45461426,12.6213203 5.65491306,12.6213203 L7.58772763,12.6213203 C7.78802642,12.6213203 7.8593341,12.6075502 7.93263341,12.5683493 C7.99162474,12.5368004 8.03680039,12.4916247 8.0683493,12.4326334 C8.1075502,12.3593341 8.12132034,12.2880264 8.12132034,12.0877276 L8.12132034,10.1549131 C8.12132034,9.95461426 8.1075502,9.88330659 8.0683493,9.81000728 C8.03680039,9.75101595 7.99162474,9.7058403 7.93263341,9.67429139 C7.8593341,9.63509049 7.78802642,9.62132034 7.58772763,9.62132034 L5.65491306,9.62132034 Z" id="矩形" fill-opacity="0.2" fill="#000000" transform="translate(6.6213, 11.1213) rotate(-360) translate(-6.6213, -11.1213)"></path>
                <path d="M11.1213203,4.93382034 C12.0533009,4.93382034 12.8088203,5.68933983 12.8088203,6.62132034 C12.8088203,7.55330086 12.0533009,8.30882034 11.1213203,8.30882034 C10.1893398,8.30882034 9.43382034,7.55330086 9.43382034,6.62132034 C9.43382034,5.68933983 10.1893398,4.93382034 11.1213203,4.93382034 Z" id="矩形" fill="url(#linearGradient-12)" transform="translate(11.1213, 6.6213) rotate(-360) translate(-11.1213, -6.6213)"></path>
                <path d="M11.1213203,4.93382034 C12.0533009,4.93382034 12.8088203,5.68933983 12.8088203,6.62132034 C12.8088203,7.55330086 12.0533009,8.30882034 11.1213203,8.30882034 C10.1893398,8.30882034 9.43382034,7.55330086 9.43382034,6.62132034 C9.43382034,5.68933983 10.1893398,4.93382034 11.1213203,4.93382034 Z M11.1213203,5.12132034 C10.2928932,5.12132034 9.62132034,5.79289322 9.62132034,6.62132034 C9.62132034,7.44974747 10.2928932,8.12132034 11.1213203,8.12132034 C11.9497475,8.12132034 12.6213203,7.44974747 12.6213203,6.62132034 C12.6213203,5.79289322 11.9497475,5.12132034 11.1213203,5.12132034 Z" id="矩形" fill-opacity="0.2" fill="#000000" transform="translate(11.1213, 6.6213) rotate(-360) translate(-11.1213, -6.6213)"></path>
                <path d="M10.1549131,9.43382034 L12.0877276,9.43382034 C12.3384673,9.43382034 12.4293915,9.45992755 12.5210582,9.50895142 C12.6127249,9.55797529 12.6846654,9.62991582 12.7336893,9.72158249 C12.7827131,9.81324916 12.8088203,9.90417341 12.8088203,10.1549131 L12.8088203,12.0877276 C12.8088203,12.3384673 12.7827131,12.4293915 12.7336893,12.5210582 C12.6846654,12.6127249 12.6127249,12.6846654 12.5210582,12.7336893 C12.4293915,12.7827131 12.3384673,12.8088203 12.0877276,12.8088203 L10.1549131,12.8088203 C9.90417341,12.8088203 9.81324916,12.7827131 9.72158249,12.7336893 C9.62991582,12.6846654 9.55797529,12.6127249 9.50895142,12.5210582 C9.45992755,12.4293915 9.43382034,12.3384673 9.43382034,12.0877276 L9.43382034,10.1549131 C9.43382034,9.90417341 9.45992755,9.81324916 9.50895142,9.72158249 C9.55797529,9.62991582 9.62991582,9.55797529 9.72158249,9.50895142 C9.81324916,9.45992755 9.90417341,9.43382034 10.1549131,9.43382034 Z" id="矩形" fill="url(#linearGradient-13)" transform="translate(11.1213, 11.1213) rotate(-360) translate(-11.1213, -11.1213)"></path>
                <path d="M12.0877276,9.43382034 C12.3384673,9.43382034 12.4293915,9.45992755 12.5210582,9.50895142 C12.6127249,9.55797529 12.6846654,9.62991582 12.7336893,9.72158249 C12.7827131,9.81324916 12.8088203,9.90417341 12.8088203,10.1549131 L12.8088203,12.0877276 C12.8088203,12.3384673 12.7827131,12.4293915 12.7336893,12.5210582 C12.6846654,12.6127249 12.6127249,12.6846654 12.5210582,12.7336893 C12.4293915,12.7827131 12.3384673,12.8088203 12.0877276,12.8088203 L10.1549131,12.8088203 C9.90417341,12.8088203 9.81324916,12.7827131 9.72158249,12.7336893 C9.62991582,12.6846654 9.55797529,12.6127249 9.50895142,12.5210582 C9.45992755,12.4293915 9.43382034,12.3384673 9.43382034,12.0877276 L9.43382034,10.1549131 C9.43382034,9.90417341 9.45992755,9.81324916 9.50895142,9.72158249 C9.55797529,9.62991582 9.62991582,9.55797529 9.72158249,9.50895142 C9.81324916,9.45992755 9.90417341,9.43382034 10.1549131,9.43382034 L12.0877276,9.43382034 Z M10.1549131,9.62132034 C9.95461426,9.62132034 9.88330659,9.63509049 9.81000728,9.67429139 C9.75101595,9.7058403 9.7058403,9.75101595 9.67429139,9.81000728 C9.63509049,9.88330659 9.62132034,9.95461426 9.62132034,10.1549131 L9.62132034,12.0877276 C9.62132034,12.2880264 9.63509049,12.3593341 9.67429139,12.4326334 C9.7058403,12.4916247 9.75101595,12.5368004 9.81000728,12.5683493 C9.88330659,12.6075502 9.95461426,12.6213203 10.1549131,12.6213203 L12.0877276,12.6213203 C12.2880264,12.6213203 12.3593341,12.6075502 12.4326334,12.5683493 C12.4916247,12.5368004 12.5368004,12.4916247 12.5683493,12.4326334 C12.6075502,12.3593341 12.6213203,12.2880264 12.6213203,12.0877276 L12.6213203,10.1549131 C12.6213203,9.95461426 12.6075502,9.88330659 12.5683493,9.81000728 C12.5368004,9.75101595 12.4916247,9.7058403 12.4326334,9.67429139 C12.3593341,9.63509049 12.2880264,9.62132034 12.0877276,9.62132034 L10.1549131,9.62132034 Z" id="矩形" fill-opacity="0.2" fill="#000000" transform="translate(11.1213, 11.1213) rotate(-360) translate(-11.1213, -11.1213)"></path>
            </g>
        </g>
    </g>
</svg>