<?xml version="1.0" encoding="UTF-8"?>
<svg width="25px" height="25px" viewBox="0 0 25 25" version="1.1" xmlns="http://www.w3.org/2000/svg" xmlns:xlink="http://www.w3.org/1999/xlink">
    <title>apps/128/deepin-boot-maker</title>
    <defs>
        <filter x="-11.9%" y="-4.7%" width="123.7%" height="118.7%" filterUnits="objectBoundingBox" id="filter-1">
            <feOffset dx="0" dy="1" in="SourceAlpha" result="shadowOffsetOuter1"></feOffset>
            <feGaussianBlur stdDeviation="0.5" in="shadowOffsetOuter1" result="shadowBlurOuter1"></feGaussianBlur>
            <feColorMatrix values="0 0 0 0 0   0 0 0 0 0   0 0 0 0 0  0 0 0 0.20036604 0" type="matrix" in="shadowBlurOuter1" result="shadowMatrixOuter1"></feColorMatrix>
            <feMerge>
                <feMergeNode in="shadowMatrixOuter1"></feMergeNode>
                <feMergeNode in="SourceGraphic"></feMergeNode>
            </feMerge>
        </filter>
        <linearGradient x1="36.3040415%" y1="0%" x2="44.954474%" y2="95.3030409%" id="linearGradient-2">
            <stop stop-color="#BFBFBF" offset="0%"></stop>
            <stop stop-color="#7E7E7E" offset="100%"></stop>
        </linearGradient>
        <path d="M14.4713576,-2.26708535e-16 C15.3071564,1.31724187e-16 15.6102373,0.0870240105 15.9157928,0.25043691 C16.2213484,0.413849809 16.4611502,0.653651597 16.6245631,0.959207153 C16.787976,1.26476271 16.875,1.56784356 16.875,2.40364237 L16.875,18.9713576 C16.875,19.8071564 16.787976,20.1102373 16.6245631,20.4157928 C16.4611502,20.7213484 16.2213484,20.9611502 15.9157928,21.1245631 C15.6102373,21.287976 15.3071564,21.375 14.4713576,21.375 L2.40364237,21.375 C1.56784356,21.375 1.26476271,21.287976 0.959207153,21.1245631 C0.653651597,20.9611502 0.413849809,20.7213484 0.25043691,20.4157928 C0.0870240105,20.1102373 0,19.8071564 0,18.9713576 L0,6.36004646 C0,5.8115854 0.0171859818,5.62424354 0.060634482,5.41577888 C0.104082982,5.20731423 0.173794001,5.0224991 0.278844075,4.83727014 C0.383894149,4.65204117 0.494714522,4.50001758 0.856931775,4.08818241 L3.46655694,1.12108076 C3.8718484,0.660270914 4.03255632,0.515852899 4.23383336,0.377631401 C4.4351104,0.239409904 4.64387155,0.145002053 4.88058934,0.0851495774 C5.09363535,0.0312823491 5.28874801,0.00540497404 5.77301503,0.000768171318 L14.4713576,-2.26708535e-16 Z M15,1.3125 C14.482233,1.3125 14.0625,1.73223305 14.0625,2.25 C14.0625,2.76776695 14.482233,3.1875 15,3.1875 C15.517767,3.1875 15.9375,2.76776695 15.9375,2.25 C15.9375,1.73223305 15.517767,1.3125 15,1.3125 Z" id="path-3"></path>
        <filter x="-5.9%" y="-4.7%" width="111.9%" height="109.4%" filterUnits="objectBoundingBox" id="filter-4">
            <feGaussianBlur stdDeviation="0.5" in="SourceAlpha" result="shadowBlurInner1"></feGaussianBlur>
            <feOffset dx="0" dy="1" in="shadowBlurInner1" result="shadowOffsetInner1"></feOffset>
            <feComposite in="shadowOffsetInner1" in2="SourceAlpha" operator="arithmetic" k2="-1" k3="1" result="shadowInnerInner1"></feComposite>
            <feColorMatrix values="0 0 0 0 1   0 0 0 0 1   0 0 0 0 1  0 0 0 0.3 0" type="matrix" in="shadowInnerInner1"></feColorMatrix>
        </filter>
        <linearGradient x1="50%" y1="0%" x2="50%" y2="99.3667709%" id="linearGradient-5">
            <stop stop-color="#FFFFFF" stop-opacity="0.654949055" offset="0%"></stop>
            <stop stop-color="#000000" stop-opacity="0.44121845" offset="100%"></stop>
        </linearGradient>
        <linearGradient x1="50%" y1="0%" x2="50%" y2="96.1709307%" id="linearGradient-6">
            <stop stop-color="#343434" offset="0%"></stop>
            <stop stop-color="#181818" offset="100%"></stop>
        </linearGradient>
        <path d="M0,14.4375 L16.875,14.4375 L16.875,18.9706064 C16.875,19.8066665 16.7879488,20.109842 16.6244848,20.4154931 C16.4610209,20.7211441 16.2211441,20.9610209 15.9154931,21.1244848 C15.609842,21.2879488 15.3066665,21.375 14.4706064,21.375 L2.40439356,21.375 C1.56833354,21.375 1.26515797,21.2879488 0.959506923,21.1244848 C0.653855876,20.9610209 0.413979145,20.7211441 0.250515176,20.4154931 C0.0870512071,20.109842 0,19.8066665 0,18.9706064 L0,14.4375 L0,14.4375 Z" id="path-7"></path>
        <filter x="-3.0%" y="-7.2%" width="105.9%" height="114.4%" filterUnits="objectBoundingBox" id="filter-8">
            <feOffset dx="0" dy="-1" in="SourceAlpha" result="shadowOffsetInner1"></feOffset>
            <feComposite in="shadowOffsetInner1" in2="SourceAlpha" operator="arithmetic" k2="-1" k3="1" result="shadowInnerInner1"></feComposite>
            <feColorMatrix values="0 0 0 0 0   0 0 0 0 0   0 0 0 0 0  0 0 0 0.2 0" type="matrix" in="shadowInnerInner1"></feColorMatrix>
        </filter>
        <linearGradient x1="0%" y1="44.4786778%" x2="100%" y2="55.5136955%" id="linearGradient-9">
            <stop stop-color="#F1E274" offset="0%"></stop>
            <stop stop-color="#CEB214" offset="18.1492935%"></stop>
            <stop stop-color="#F2CC00" offset="37.8161879%"></stop>
            <stop stop-color="#E7BF00" offset="56.4734084%"></stop>
            <stop stop-color="#F9D53B" offset="67.5681256%"></stop>
            <stop stop-color="#E8B800" offset="83.4427313%"></stop>
            <stop stop-color="#FFCF00" offset="100%"></stop>
        </linearGradient>
        <path d="M3.48087868,15.75 L4.01912132,15.75 C4.18633331,15.75 4.24696842,15.7674102 4.30809863,15.800103 C4.36922883,15.8327958 4.41720418,15.8807712 4.44989697,15.9419014 C4.48258976,16.0030316 4.5,16.0636667 4.5,16.2308787 L4.5,19.2066213 C4.5,19.3738333 4.48258976,19.4344684 4.44989697,19.4955986 C4.41720418,19.5567288 4.36922883,19.6047042 4.30809863,19.637397 C4.24696842,19.6700898 4.18633331,19.6875 4.01912132,19.6875 L3.48087868,19.6875 C3.31366669,19.6875 3.25303158,19.6700898 3.19190137,19.637397 C3.13077117,19.6047042 3.08279582,19.5567288 3.05010303,19.4955986 C3.01741024,19.4344684 3,19.3738333 3,19.2066213 L3,16.2308787 C3,16.0636667 3.01741024,16.0030316 3.05010303,15.9419014 C3.08279582,15.8807712 3.13077117,15.8327958 3.19190137,15.800103 C3.25303158,15.7674102 3.31366669,15.75 3.48087868,15.75 Z M12.8558787,15.75 L13.3941213,15.75 C13.5613333,15.75 13.6219684,15.7674102 13.6830986,15.800103 C13.7442288,15.8327958 13.7922042,15.8807712 13.824897,15.9419014 C13.8575898,16.0030316 13.875,16.0636667 13.875,16.2308787 L13.875,19.2066213 C13.875,19.3738333 13.8575898,19.4344684 13.824897,19.4955986 C13.7922042,19.5567288 13.7442288,19.6047042 13.6830986,19.637397 C13.6219684,19.6700898 13.5613333,19.6875 13.3941213,19.6875 L12.8558787,19.6875 C12.6886667,19.6875 12.6280316,19.6700898 12.5669014,19.637397 C12.5057712,19.6047042 12.4577958,19.5567288 12.425103,19.4955986 C12.3924102,19.4344684 12.375,19.3738333 12.375,19.2066213 L12.375,16.2308787 C12.375,16.0636667 12.3924102,16.0030316 12.425103,15.9419014 C12.4577958,15.8807712 12.5057712,15.8327958 12.5669014,15.800103 C12.6280316,15.7674102 12.6886667,15.75 12.8558787,15.75 Z M9.85587868,15.75 L10.3941213,15.75 C10.5613333,15.75 10.6219684,15.7674102 10.6830986,15.800103 C10.7442288,15.8327958 10.7922042,15.8807712 10.824897,15.9419014 C10.8575898,16.0030316 10.875,16.0636667 10.875,16.2308787 L10.875,18.2691213 C10.875,18.4363333 10.8575898,18.4969684 10.824897,18.5580986 C10.7922042,18.6192288 10.7442288,18.6672042 10.6830986,18.699897 C10.6219684,18.7325898 10.5613333,18.75 10.3941213,18.75 L9.85587868,18.75 C9.68866669,18.75 9.62803158,18.7325898 9.56690137,18.699897 C9.50577117,18.6672042 9.45779582,18.6192288 9.42510303,18.5580986 C9.39241024,18.4969684 9.375,18.4363333 9.375,18.2691213 L9.375,16.2308787 C9.375,16.0636667 9.39241024,16.0030316 9.42510303,15.9419014 C9.45779582,15.8807712 9.50577117,15.8327958 9.56690137,15.800103 C9.62803158,15.7674102 9.68866669,15.75 9.85587868,15.75 Z M6.48087868,15.75 L7.01912132,15.75 C7.18633331,15.75 7.24696842,15.7674102 7.30809863,15.800103 C7.36922883,15.8327958 7.41720418,15.8807712 7.44989697,15.9419014 C7.48258976,16.0030316 7.5,16.0636667 7.5,16.2308787 L7.5,18.2691213 C7.5,18.4363333 7.48258976,18.4969684 7.44989697,18.5580986 C7.41720418,18.6192288 7.36922883,18.6672042 7.30809863,18.699897 C7.24696842,18.7325898 7.18633331,18.75 7.01912132,18.75 L6.48087868,18.75 C6.31366669,18.75 6.25303158,18.7325898 6.19190137,18.699897 C6.13077117,18.6672042 6.08279582,18.6192288 6.05010303,18.5580986 C6.01741024,18.4969684 6,18.4363333 6,18.2691213 L6,16.2308787 C6,16.0636667 6.01741024,16.0030316 6.05010303,15.9419014 C6.08279582,15.8807712 6.13077117,15.8327958 6.19190137,15.800103 C6.25303158,15.7674102 6.31366669,15.75 6.48087868,15.75 Z" id="path-10"></path>
        <filter x="-4.6%" y="-12.7%" width="109.2%" height="125.4%" filterUnits="objectBoundingBox" id="filter-11">
            <feOffset dx="0" dy="1" in="SourceAlpha" result="shadowOffsetInner1"></feOffset>
            <feComposite in="shadowOffsetInner1" in2="SourceAlpha" operator="arithmetic" k2="-1" k3="1" result="shadowInnerInner1"></feComposite>
            <feColorMatrix values="0 0 0 0 0.926828578   0 0 0 0 0.558558022   0 0 0 0 0  0 0 0 0.5 0" type="matrix" in="shadowInnerInner1"></feColorMatrix>
        </filter>
        <path d="M10.5,6.49408482 L10.5,11.1309152 C10.5,11.1966839 10.4466839,11.25 10.3809152,11.25 L5.55658482,11.25 C5.49081609,11.25 5.4375,11.1966839 5.4375,11.1309152 L5.4375,6.49408482 C5.4375,6.42831609 5.49081609,6.375 5.55658482,6.375 L7.00591518,6.375 C7.07168391,6.375 7.125,6.42831609 7.125,6.49408482 L7.125,9.44341518 C7.125,9.50918391 7.17831609,9.5625 7.24408482,9.5625 L8.69341518,9.5625 C8.75918391,9.5625 8.8125,9.50918391 8.8125,9.44341518 L8.8125,6.49408482 C8.8125,6.42831609 8.86581609,6.375 8.93158482,6.375 L10.3809152,6.375 C10.4466839,6.375 10.5,6.42831609 10.5,6.49408482 Z M11.625,4.80658482 L11.625,6.06841518 C11.625,6.13418391 11.5716839,6.1875 11.5059152,6.1875 L10.6190848,6.1875 C10.5533161,6.1875 10.5,6.13418391 10.5,6.06841518 L10.5,4.80658482 C10.5,4.74081609 10.5533161,4.6875 10.6190848,4.6875 L11.5059152,4.6875 C11.5716839,4.6875 11.625,4.74081609 11.625,4.80658482 Z M11.25,5.0625 L10.875,5.0625 L10.875,5.8125 L11.25,5.8125 L11.25,5.0625 Z M12.8184152,6.1875 L11.9315848,6.1875 C11.8658161,6.1875 11.8125,6.13418391 11.8125,6.06841518 L11.8125,5.8125 L11.8125,5.8125 L12.5625,5.8125 L12.5625,5.625 L11.9315848,5.625 C11.8658161,5.625 11.8125,5.57168391 11.8125,5.50591518 L11.8125,4.80658482 C11.8125,4.74081609 11.8658161,4.6875 11.9315848,4.6875 L12.8184152,4.6875 C12.8841839,4.6875 12.9375,4.74081609 12.9375,4.80658482 L12.9375,5.0625 L12.9375,5.0625 L12.1875,5.0625 L12.1875,5.25 L12.8184152,5.25 C12.8841839,5.25 12.9375,5.30331609 12.9375,5.36908482 L12.9375,6.06841518 C12.9375,6.13418391 12.8841839,6.1875 12.8184152,6.1875 Z" id="path-12"></path>
    </defs>
    <g id="apps/128/deepin-boot-maker" stroke="none" fill="none" transform="translate(0.75, 0)">
        <g id="编组" filter="url(#filter-1)" stroke-width="1" fill-rule="evenodd" transform="translate(3.5625, 1.3125)">
            <g id="编组-2">
                <g id="形状结合">
                    <use fill="url(#linearGradient-2)" fill-rule="evenodd" xlink:href="#path-3"></use>
                    <use fill="black" fill-opacity="1" filter="url(#filter-4)" xlink:href="#path-3"></use>
                </g>
                <path d="M14.4713576,0 C15.3071564,0 15.6102373,0.0870240105 15.9157928,0.25043691 C16.2213484,0.413849809 16.4611502,0.653651597 16.6245631,0.959207153 C16.787976,1.26476271 16.875,1.56784356 16.875,2.40364237 L16.875,18.9713576 C16.875,19.8071564 16.787976,20.1102373 16.6245631,20.4157928 C16.4611502,20.7213484 16.2213484,20.9611502 15.9157928,21.1245631 C15.6102373,21.287976 15.3071564,21.375 14.4713576,21.375 L2.40364237,21.375 C1.56784356,21.375 1.26476271,21.287976 0.959207153,21.1245631 C0.653651597,20.9611502 0.413849809,20.7213484 0.25043691,20.4157928 C0.0870240105,20.1102373 0,19.8071564 0,18.9713576 L0,6.36004646 C0,5.8115854 0.0171859818,5.62424354 0.060634482,5.41577888 C0.104082982,5.20731423 0.173794001,5.0224991 0.278844075,4.83727014 C0.383894149,4.65204117 0.494714522,4.50001758 0.856931775,4.08818241 L3.46655694,1.12108076 C3.8718484,0.660270914 4.03255632,0.515852899 4.23383336,0.377631401 C4.4351104,0.239409904 4.64387155,0.145002053 4.88058934,0.0851495774 C5.10885292,0.0274346899 5.31652975,0.00185101155 5.88132428,0 L14.4713576,0 Z M5.8819065,0.1875 C5.36823113,0.189191373 5.15781204,0.208456275 4.92655104,0.266929039 C4.71134591,0.321342187 4.52296111,0.406535256 4.33997591,0.532195334 C4.1365918,0.671863803 3.97737197,0.824200521 3.60734923,1.2449104 L0.997724073,4.21201205 C0.66393913,4.59152014 0.547092953,4.74435826 0.441940368,4.92976797 C0.346480757,5.0980866 0.283671985,5.26460276 0.244190082,5.4540358 C0.202511304,5.65400938 0.188652522,5.83861347 0.1875,6.29847908 L0.1875,18.9713576 C0.1875,19.7050673 0.246576589,20.010991 0.415776884,20.3273681 C0.561714821,20.6002483 0.774751722,20.8132852 1.04763194,20.9592231 C1.36400898,21.1284234 1.66993267,21.1875 2.40364237,21.1875 L14.4713576,21.1875 C15.2050673,21.1875 15.510991,21.1284234 15.8273681,20.9592231 C16.1002483,20.8132852 16.3132852,20.6002483 16.4592231,20.3273681 C16.6284234,20.010991 16.6875,19.7050673 16.6875,18.9713576 L16.6875,2.40364237 C16.6875,1.66993267 16.6284234,1.36400898 16.4592231,1.04763194 C16.3132852,0.774751722 16.1002483,0.561714821 15.8273681,0.415776884 C15.510991,0.246576589 15.2050673,0.1875 14.4713576,0.1875 L5.8819065,0.1875 Z M15,1.125 C15.6213203,1.125 16.125,1.62867966 16.125,2.25 C16.125,2.87132034 15.6213203,3.375 15,3.375 C14.3786797,3.375 13.875,2.87132034 13.875,2.25 C13.875,1.62867966 14.3786797,1.125 15,1.125 Z M15,1.3125 C14.482233,1.3125 14.0625,1.73223305 14.0625,2.25 C14.0625,2.76776695 14.482233,3.1875 15,3.1875 C15.517767,3.1875 15.9375,2.76776695 15.9375,2.25 C15.9375,1.73223305 15.517767,1.3125 15,1.3125 Z" id="形状结合" fill="url(#linearGradient-5)" fill-rule="nonzero"></path>
                <g id="矩形">
                    <use fill="url(#linearGradient-6)" fill-rule="evenodd" xlink:href="#path-7"></use>
                    <use fill="black" fill-opacity="1" filter="url(#filter-8)" xlink:href="#path-7"></use>
                </g>
                <g id="形状结合">
                    <use fill="url(#linearGradient-9)" fill-rule="evenodd" xlink:href="#path-10"></use>
                    <use fill="black" fill-opacity="1" filter="url(#filter-11)" xlink:href="#path-10"></use>
                </g>
            </g>
            <mask id="mask-13" fill="white">
                <use xlink:href="#path-12"></use>
            </mask>
            <use id="形状结合" fill="#FFFFFF" fill-rule="nonzero" xlink:href="#path-12"></use>
        </g>
        <g id="Guide/128"></g>
    </g>
</svg>