<?xml version="1.0" encoding="utf-8"?>
<!-- Generator: Adobe Illustrator 18.0.0, SVG Export Plug-In . SVG Version: 6.00 Build 0)  -->
<!DOCTYPE svg PUBLIC "-//W3C//DTD SVG 1.1//EN" "http://www.w3.org/Graphics/SVG/1.1/DTD/svg11.dtd">
<svg version="1.1" id="图层_1" xmlns="http://www.w3.org/2000/svg" xmlns:xlink="http://www.w3.org/1999/xlink" x="0px" y="0px"
	 viewBox="0 0 20 20" enable-background="new 0 0 20 20" xml:space="preserve">
<rect x="0.2" y="0.1" opacity="0" fill="#FFFFFF" width="20" height="20"/>
<path fill="#505050" d="M11.5,10.1l3-3c0.4-0.4,0.4-0.9,0-1.3s-0.9-0.4-1.3,0l-3,3l-3-3C6.9,5.6,6.3,5.6,6,5.9
	C5.6,6.3,5.6,6.8,6,7.2l3,3l-3,3c-0.4,0.4-0.4,0.9,0,1.3c0.2,0.2,0.4,0.3,0.6,0.3c0.2,0,0.5-0.1,0.6-0.3l3-3l3,3
	c0.2,0.2,0.4,0.3,0.6,0.3s0.5-0.1,0.6-0.3c0.4-0.4,0.4-0.9,0-1.3L11.5,10.1z"/>
</svg>
