<?xml version="1.0" encoding="UTF-8"?>
<svg width="20px" height="20px" viewBox="0 0 20 20" version="1.1" xmlns="http://www.w3.org/2000/svg" xmlns:xlink="http://www.w3.org/1999/xlink">
    <title>DTK/Toolbar/TitleButton/Menu</title>
    <g id="DTK/Toolbar/TitleButton/Menu" stroke="none" fill="none" fill-rule="nonzero">
        <path d="M13.6581197,16 L13.8290598,16 C13.9234675,16 14,15.9234675 14,15.8290598 L14,15.1709402 C14,15.0765325 13.9234675,15 13.8290598,15 L13.6581197,15 L4.34188034,15 L4.17094017,15 C4.07653252,15 4,15.0765325 4,15.1709402 L4,15.8290598 C4,15.9234675 4.07653252,16 4.17094017,16 L4.34188034,16 L13.6581197,16 Z M15.5897436,11 L15.7948718,11 C15.908161,11 16,10.908161 16,10.7948718 L16,10.2051282 C16,10.091839 15.908161,10 15.7948718,10 L15.5897436,10 L4.41025641,10 L4.20512821,10 C4.09183903,10 4,10.091839 4,10.2051282 L4,10.7948718 C4,10.908161 4.09183903,11 4.20512821,11 L4.41025641,11 L15.5897436,11 Z M15.5897436,6 L15.7948718,6 C15.908161,6 16,5.90816097 16,5.79487179 L16,5.20512821 C16,5.09183903 15.908161,5 15.7948718,5 L15.5897436,5 L4.41025641,5 L4.20512821,5 C4.09183903,5 4,5.09183903 4,5.20512821 L4,5.79487179 C4,5.90816097 4.09183903,6 4.20512821,6 L4.41025641,6 L15.5897436,6 Z" id="形状结合" fill="#000000"></path>
    </g>
</svg>