<?xml version="1.0" encoding="UTF-8"?>
<svg width="20px" height="20px" viewBox="0 0 20 20" version="1.1" xmlns="http://www.w3.org/2000/svg" xmlns:xlink="http://www.w3.org/1999/xlink">
    <title>notes</title>
    <g id="light" stroke="none" stroke-width="1" fill="none" fill-rule="evenodd">
        <g id="notes" fill="#727171" fill-rule="nonzero">
            <path d="M17.516,5 C17.24,5 17.016,5.224 17.016,5.5 L17.016,15 L11.547,15 C11.271,15 11.016,15.224 11.016,15.5 L11.016,16.028 L8.016,16.003 L8.016,15.5 C8.016,15.224 7.792,15 7.516,15 L2.016,15 L2.016,5.5 C2.016,5.224 1.792,5 1.516,5 C1.24,5 1.016,5.224 1.016,5.5 L1.016,15.5 C1.016,15.776 1.24,16 1.516,16 L7.016,16 L7.016,16.5 C7.016,16.775 7.238,16.982 7.513,16.984 L11.544,17 C11.545,17 11.546,17 11.547,17 C11.679,17 11.79,16.964 11.884,16.87 C11.978,16.776 12.016,16.664 12.016,16.531 L12.016,16 L17.516,16 C17.792,16 18.016,15.776 18.016,15.5 L18.016,5.5 C18.016,5.224 17.793,5 17.516,5 Z" id="Path"></path>
            <path d="M8.714,13.919 C6.402,12.552 4.093,13.529 3.303,13.947 C3.17,14.017 3.017,13.916 3.017,13.764 L3.017,3.022 C3.017,2.95 3.051,2.884 3.112,2.848 C3.644,2.535 6.314,1.132 8.92,2.841 C8.979,2.88 9.017,2.95 9.017,3.021 L9.017,13.751 C9.016,13.911 8.848,13.999 8.714,13.919 Z" id="Path"></path>
            <path d="M15.714,13.919 C13.402,12.552 11.093,13.529 10.303,13.947 C10.17,14.017 10.017,13.916 10.017,13.764 L10.017,3.022 C10.017,2.95 10.051,2.884 10.112,2.848 C10.644,2.535 13.314,1.132 15.92,2.841 C15.979,2.88 16.017,2.95 16.017,3.021 L16.017,13.751 C16.016,13.911 15.848,13.999 15.714,13.919 Z" id="Path"></path>
        </g>
    </g>
</svg>