<?xml version="1.0" encoding="UTF-8"?>
<svg width="20px" height="20px" viewBox="0 0 20 20" version="1.1" xmlns="http://www.w3.org/2000/svg" xmlns:xlink="http://www.w3.org/1999/xlink">
    <title>tips</title>
    <g id="light" stroke="none" stroke-width="1" fill="none" fill-rule="evenodd">
        <g id="tips" fill="#727171" fill-rule="nonzero">
            <path d="M14.0187482,17.938835 L17.4287482,15.671835 C17.0457482,17.137835 17.0617482,17.348835 16.7127482,17.580835 L16.0247482,18.038835 C15.6667482,18.275835 15.4637482,18.170835 14.0187482,17.938835 Z M16.4477482,14.146835 L12.9907482,16.445835 C12.7367482,16.614835 12.6677482,16.957835 12.8367482,17.210835 C13.0057482,17.463835 13.3487482,17.533835 13.6017482,17.364835 L17.0587482,15.065835 C17.3127482,14.896835 17.3817482,14.553835 17.2127482,14.300835 C17.0447482,14.046835 16.7017482,13.977835 16.4477482,14.146835 Z M14.5197482,3.69483495 C16.3917482,6.50983495 15.2627482,9.70583495 16.2377482,12.107835 C16.4197482,12.556835 16.2827482,13.068835 15.8797482,13.337835 L12.4217482,15.637835 C12.0187482,15.905835 11.4927482,15.834835 11.1487482,15.492835 C9.31074819,13.664835 5.92574819,13.469835 4.05374819,10.654835 C1.89374819,7.40783495 3.31974819,3.88183495 5.93574819,2.14183495 C8.55374819,0.401834955 12.3617482,0.449834955 14.5197482,3.69483495 Z M7.67474819,4.41083495 L6.81074819,3.51783495 C5.01674819,5.37083495 4.90374819,7.65283495 5.76174819,9.63783495 L6.91674819,9.18183495 C6.39074819,7.84883495 6.15874819,6.18183495 7.67474819,4.41083495 Z" id="light-bulb-11-icon"></path>
        </g>
    </g>
</svg>