<?xml version="1.0" encoding="UTF-8"?>
<svg width="214px" height="1px" viewBox="0 0 214 1" version="1.1" xmlns="http://www.w3.org/2000/svg" xmlns:xlink="http://www.w3.org/1999/xlink">
    <!-- Generator: Sketch 46.2 (44496) - http://www.bohemiancoding.com/sketch -->
    <title>dash_line</title>
    <desc>Created with Sketch.</desc>
    <defs></defs>
    <g id="Page-1" stroke="none" stroke-width="1" fill="none" fill-rule="evenodd" fill-opacity="0.1">
        <g id="小工具" transform="translate(-217.000000, -1069.000000)" fill-rule="nonzero" fill="#000000">
            <g id="bootmaker_2" transform="translate(107.000000, 722.000000)">
                <g id="Group-5" transform="translate(15.000000, 118.000000)">
                    <path d="M95,230 L100,230 L100,229 L95,229 L95,230 Z M110,230 L115,230 L115,229 L110,229 L110,230 Z M125,230 L130,230 L130,229 L125,229 L125,230 Z M140,230 L145,230 L145,229 L140,229 L140,230 Z M155,230 L160,230 L160,229 L155,229 L155,230 Z M170,230 L175,230 L175,229 L170,229 L170,230 Z M185,230 L190,230 L190,229 L185,229 L185,230 Z M200,230 L205,230 L205,229 L200,229 L200,230 Z M215,230 L220,230 L220,229 L215,229 L215,230 Z M230,230 L235,230 L235,229 L230,229 L230,230 Z M245,230 L250,230 L250,229 L245,229 L245,230 Z M260,230 L265,230 L265,229 L260,229 L260,230 Z M275,230 L280,230 L280,229 L275,229 L275,230 Z M290,230 L295,230 L295,229 L290,229 L290,230 Z M304,230 L309,230 L309,229 L304,229 L304,230 Z" id="dash_line"></path>
                </g>
            </g>
        </g>
    </g>
</svg>