<?xml version="1.0" encoding="UTF-8"?>
<svg width="96px" height="96px" viewBox="0 0 96 96" version="1.1" xmlns="http://www.w3.org/2000/svg" xmlns:xlink="http://www.w3.org/1999/xlink">
    <!-- Generator: Sketch 58 (84663) - https://sketch.com -->
    <title>Group 9</title>
    <desc>Created with Sketch.</desc>
    <defs>
        <linearGradient x1="28.8395889%" y1="5.6059543%" x2="73.7075197%" y2="93.9492692%" id="linearGradient-1">
            <stop stop-color="#9DC9CD" offset="0%"></stop>
            <stop stop-color="#E5BDDE" offset="47.7870472%"></stop>
            <stop stop-color="#99D6CA" offset="100%"></stop>
        </linearGradient>
    </defs>
    <g id="页面-1" stroke="none" stroke-width="1" fill="none" fill-rule="evenodd">
        <g id="启动盘_-非法文件" transform="translate(-172.000000, -182.000000)">
            <g id="Group-5" transform="translate(15.000000, 118.000000)">
                <g id="Group-9" transform="translate(157.000000, 64.000000)">
                    <g id="Group-8" transform="translate(6.000000, 6.000000)">
                        <g id="Group">
                            <g id="Group-4" transform="translate(28.000000, 28.000000)"></g>
                            <path d="M42,0 C65.1959595,0 84,18.8040405 84,42 C84,65.1959595 65.1959595,84 42,84 C18.8040405,84 0,65.1959595 0,42 C0,18.8040405 18.8040405,0 42,0 Z M42,28 C34.2680135,28 28,34.2680135 28,42 C28,49.7319865 34.2680135,56 42,56 C49.7319865,56 56,49.7319865 56,42 C56,34.2680135 49.7319865,28 42,28 Z" id="Combined-Shape" fill="url(#linearGradient-1)"></path>
                            <path d="M82,42 C82,19.90861 64.09139,2 42,2 C19.90861,2 2,19.90861 2,42 C2,64.09139 19.90861,82 42,82 C64.09139,82 82,64.09139 82,42 Z M42,62 C53.045695,62 62,53.045695 62,42 C62,30.954305 53.045695,22 42,22 C30.954305,22 22,30.954305 22,42 C22,53.045695 30.954305,62 42,62 L42,62 Z" id="Combined-Shape" fill="#FFFFFF" opacity="0.39738806"></path>
                            <path d="M42,56 C49.7319865,56 56,49.7319865 56,42 C56,34.2680135 49.7319865,28 42,28 C34.2680135,28 28,34.2680135 28,42 C28,49.7319865 34.2680135,56 42,56 L42,56 Z M42,48 C45.3137085,48 48,45.3137085 48,42 C48,38.6862915 45.3137085,36 42,36 C38.6862915,36 36,38.6862915 36,42 C36,45.3137085 38.6862915,48 42,48 L42,48 Z" id="Combined-Shape" fill="#CBD4E5" opacity="0.8"></path>
                            <path d="M42,62 C53.045695,62 62,53.045695 62,42 C62,30.954305 53.045695,22 42,22 C30.954305,22 22,30.954305 22,42 C22,53.045695 30.954305,62 42,62 L42,62 Z M42,54 C48.627417,54 54,48.627417 54,42 C54,35.372583 48.627417,30 42,30 C35.372583,30 30,35.372583 30,42 C30,48.627417 35.372583,54 42,54 L42,54 Z" id="Combined-Shape" fill="#B792AF" opacity="0.4"></path>
                            <path d="M42,2 C37.8443549,2 33.8296732,2.60353631 30.0388267,3.72773723 C30.0388267,3.72773719 40.0689018,36 40.0689018,36.1320969 C40.7001407,36.0450066 41.3448144,36 42,36 C42.7069542,36 43.4016698,36.0523999 44.0804747,36.1535276 C44.0804746,36.0524006 54.0805309,3.72773719 54.0805309,3.76332767 C50.2546337,2.61627926 46.1992867,2 42,2 Z M42,82.0181583 C37.8443549,82.0181583 33.8296732,81.414622 30.0388267,80.2904211 C30.0388267,80.2904211 40.0488317,47.8706336 40.0488319,47.8832776 C40.6864741,47.9721924 41.3378691,48.0181583 42,48.0181583 C42.6928301,48.0181583 43.3739056,47.9678313 44.0397704,47.8706336 C44.7497408,47.7669976 54.0805309,80.2904211 54.0805309,80.2548306 C50.2546337,81.401879 46.1992867,82.0181583 42,82.0181583 Z" id="Combined-Shape" fill="#FFFFFF" opacity="0.25" transform="translate(42.059679, 42.009079) rotate(-30.000000) translate(-42.059679, -42.009079) "></path>
                        </g>
                    </g>
                </g>
            </g>
        </g>
    </g>
</svg>