<?xml version="1.0" encoding="UTF-8"?>
<svg width="48px" height="48px" viewBox="0 0 48 48" version="1.1" xmlns="http://www.w3.org/2000/svg" xmlns:xlink="http://www.w3.org/1999/xlink">
    <!-- Generator: Sketch 58 (84663) - https://sketch.com -->
    <title>drive</title>
    <desc>Created with Sketch.</desc>
    <defs>
        <filter x="-19.1%" y="-16.2%" width="138.2%" height="132.5%" filterUnits="objectBoundingBox" id="filter-1">
            <feOffset dx="0" dy="1" in="SourceAlpha" result="shadowOffsetOuter1"></feOffset>
            <feGaussianBlur stdDeviation="1" in="shadowOffsetOuter1" result="shadowBlurOuter1"></feGaussianBlur>
            <feComposite in="shadowBlurOuter1" in2="SourceAlpha" operator="out" result="shadowBlurOuter1"></feComposite>
            <feColorMatrix values="0 0 0 0 0   0 0 0 0 0   0 0 0 0 0  0 0 0 0.2 0" type="matrix" in="shadowBlurOuter1" result="shadowMatrixOuter1"></feColorMatrix>
            <feMerge>
                <feMergeNode in="shadowMatrixOuter1"></feMergeNode>
                <feMergeNode in="SourceGraphic"></feMergeNode>
            </feMerge>
        </filter>
        <linearGradient x1="102.549264%" y1="57.6822305%" x2="-2.65228894%" y2="57.6822305%" id="linearGradient-2">
            <stop stop-color="#9B58FF" offset="0%"></stop>
            <stop stop-color="#891EFF" offset="4.57146722%"></stop>
            <stop stop-color="#A054FF" offset="11.7968023%"></stop>
            <stop stop-color="#A664FF" offset="85.0953982%"></stop>
            <stop stop-color="#8F36FB" offset="93.7925209%"></stop>
            <stop stop-color="#9B58FF" offset="100%"></stop>
        </linearGradient>
        <linearGradient x1="100%" y1="56.4295561%" x2="0%" y2="56.4295561%" id="linearGradient-3">
            <stop stop-color="#FFFFFF" stop-opacity="0.5" offset="0%"></stop>
            <stop stop-color="#FFFFFF" stop-opacity="0.9" offset="9.93588454%"></stop>
            <stop stop-color="#FFFFFF" stop-opacity="0.7" offset="52.3560063%"></stop>
            <stop stop-color="#FFFFFF" stop-opacity="0.9" offset="87.6484117%"></stop>
            <stop stop-color="#FFFFFF" stop-opacity="0.5" offset="100%"></stop>
        </linearGradient>
        <radialGradient cx="48.2392027%" cy="19.1031265%" fx="48.2392027%" fy="19.1031265%" r="78.6539217%" gradientTransform="translate(0.482392,0.191031),scale(0.205882,1.000000),rotate(90.000000),scale(1.000000,3.580713),translate(-0.482392,-0.191031)" id="radialGradient-4">
            <stop stop-color="#E6B3FF" offset="0%"></stop>
            <stop stop-color="#72A3FF" offset="100%"></stop>
        </radialGradient>
        <linearGradient x1="50%" y1="0%" x2="50%" y2="100%" id="linearGradient-5">
            <stop stop-color="#0174FF" offset="0%"></stop>
            <stop stop-color="#01C2FF" offset="50.8499801%"></stop>
            <stop stop-color="#0056FF" offset="100%"></stop>
        </linearGradient>
    </defs>
    <g id="页面-1" stroke="none" stroke-width="1" fill="none" fill-rule="evenodd">
        <g id="启动盘_-选择U盘设备" transform="translate(-29.000000, -203.000000)">
            <g id="Group-5" transform="translate(20.000000, 127.000000)">
                <g id="Group-33">
                    <g id="编组-4" transform="translate(0.000000, 70.000000)">
                        <g id="drive-2" transform="translate(9.000000, 6.000000)">
                            <g id="drive-removable-media-48px" transform="translate(0.000000, -0.000000)">
                                <g id="drive-harddisk-48px" stroke-width="1" transform="translate(7.000000, 4.000000)">
                                    <g id="Group-2" filter="url(#filter-1)">
                                        <rect id="Rectangle-1" fill="url(#linearGradient-2)" x="0" y="0" width="34" height="37" rx="6"></rect>
                                        <path d="M0.5,31.9999433 L0.5,36.4903342 C0.5,36.4991254 0.500876871,36.5 0.507013887,36.5 L33.4929861,36.5 C33.5012055,36.5 33.5,36.5012283 33.5,36.4903342 L33.5,31.9999433 C33.5,30.0725878 31.9296976,28.5 29.9997876,28.5 L4.00021236,28.5 C2.06777442,28.5 0.5,30.0673778 0.5,31.9999433 Z" id="Rectangle-3" stroke-opacity="0.5" stroke="#FFFFFF" fill="url(#linearGradient-3)"></path>
                                        <path d="M0.5,36.5 C0.5,38.1545368 1.84236887,39.5 3.49466128,39.5 L30.5053387,39.5 C32.1545903,39.5 33.5,38.1544201 33.5,36.5 C33.5,34.8454632 32.1576311,33.5 30.5053387,33.5 L3.49466128,33.5 C1.84540975,33.5 0.5,34.8455799 0.5,36.5 Z" id="Rectangle-1" stroke-opacity="0.2" stroke="#003D9C" fill="url(#radialGradient-4)"></path>
                                        <g id="Group" transform="translate(19.500000, 35.000000)" fill="url(#linearGradient-5)">
                                            <path d="M11,0 C11.2761424,0 11.5,0.215752602 11.5,0.495388985 L11.5,2.50461102 C11.5,2.74780727 11.3167438,2.95007308 11.0877486,2.99201862 L11,3 C10.7238576,3 10.5,2.7842474 10.5,2.50461102 L10.5,0.495388985 C10.5,0.252192734 10.6832562,0.0499269165 10.9122514,0.00798137978 L11,0 Z M9,0 C9.27614237,0 9.5,0.215752602 9.5,0.495388985 L9.5,2.50461102 C9.5,2.74780727 9.31674383,2.95007308 9.08774863,2.99201862 L9,3 C8.72385763,3 8.5,2.7842474 8.5,2.50461102 L8.5,0.495388985 C8.5,0.252192734 8.68325617,0.0499269165 8.91225137,0.00798137978 L9,0 Z M7,0 C7.27614237,0 7.5,0.215752602 7.5,0.495388985 L7.5,2.50461102 C7.5,2.74780727 7.31674383,2.95007308 7.08774863,2.99201862 L7,3 C6.72385763,3 6.5,2.7842474 6.5,2.50461102 L6.5,0.495388985 C6.5,0.252192734 6.68325617,0.0499269165 6.91225137,0.00798137978 L7,0 Z M5,0 C5.27614237,0 5.5,0.215752602 5.5,0.495388985 L5.5,2.50461102 C5.5,2.74780727 5.31674383,2.95007308 5.08774863,2.99201862 L5,3 C4.72385763,3 4.5,2.7842474 4.5,2.50461102 L4.5,0.495388985 C4.5,0.252192734 4.68325617,0.0499269165 4.91225137,0.00798137978 L5,0 Z M3,0 C3.27614237,0 3.5,0.215752602 3.5,0.495388985 L3.5,2.50461102 C3.5,2.74780727 3.31674383,2.95007308 3.08774863,2.99201862 L3,3 C2.72385763,3 2.5,2.7842474 2.5,2.50461102 L2.5,0.495388985 C2.5,0.252192734 2.68325617,0.0499269165 2.91225137,0.00798137978 L3,0 Z M1,0 C1.27614237,0 1.5,0.215752602 1.5,0.495388985 L1.5,2.50461102 C1.5,2.74780727 1.31674383,2.95007308 1.08774863,2.99201862 L1,3 C0.723857625,3 0.5,2.7842474 0.5,2.50461102 L0.5,0.495388985 C0.5,0.252192734 0.683256173,0.0499269165 0.912251372,0.00798137978 L1,0 Z" id="Combined-Shape"></path>
                                        </g>
                                        <path d="M4,37.5 C4.55228475,37.5 5,37.0522847 5,36.5 C5,35.9477153 4.55228475,35.5 4,35.5 C3.44771525,35.5 3,35.9477153 3,36.5 C3,37.0522847 3.44771525,37.5 4,37.5 Z" id="Oval" stroke="#A50AFF" fill="#F076FF"></path>
                                    </g>
                                </g>
                                <polygon id="Path-2" fill="#FFFFFF" points="17 21 24 12 31 21"></polygon>
                                <rect id="Rectangle" fill="#FFFFFF" x="17" y="23" width="14" height="2"></rect>
                            </g>
                        </g>
                    </g>
                </g>
            </g>
        </g>
    </g>
</svg>