<?xml version="1.0" encoding="UTF-8"?>
<svg width="128px" height="128px" viewBox="0 0 128 128" version="1.1" xmlns="http://www.w3.org/2000/svg" xmlns:xlink="http://www.w3.org/1999/xlink">
    <!-- Generator: Sketch 46.2 (44496) - http://www.bohemiancoding.com/sketch -->
    <title>fail</title>
    <desc>Created with Sketch.</desc>
    <defs>
        <linearGradient x1="50%" y1="0%" x2="50%" y2="100%" id="linearGradient-1">
            <stop stop-color="#FFA861" offset="0%"></stop>
            <stop stop-color="#FF90B1" offset="100%"></stop>
        </linearGradient>
        <path d="M64,113 C36.9380473,113 15,91.0619527 15,64 C15,36.9380473 36.9380473,15 64,15 C91.0619527,15 113,36.9380473 113,64 C113,91.0619527 91.0619527,113 64,113 Z M65.4911165,67.5695436 L65.4911165,67.5695436 L81.8063492,83.8847763 C82.3921356,84.4705627 83.3418831,84.4705627 83.9276695,83.8847763 C84.513456,83.2989899 84.513456,82.3492424 83.9276695,81.763456 L67.6124369,65.4482233 L84.0008928,49.0597673 C84.5866793,48.4739809 84.5866793,47.5242334 84.0008928,46.938447 C83.4151064,46.3526606 82.4653589,46.3526606 81.8795725,46.938447 L65.4911165,63.326903 L49.986544,47.8223305 C49.4007576,47.236544 48.4510101,47.236544 47.8652237,47.8223305 C47.2794373,48.4081169 47.2794373,49.3578644 47.8652237,49.9436508 L63.3697962,65.4482233 L47.938447,80.8795725 C47.3526606,81.4653589 47.3526606,82.4151064 47.938447,83.0008928 C48.5242334,83.5866793 49.4739809,83.5866793 50.0597673,83.0008928 L65.4911165,67.5695436 Z" id="path-2"></path>
        <filter x="-12.2%" y="-6.1%" width="124.5%" height="124.5%" filterUnits="objectBoundingBox" id="filter-3">
            <feOffset dx="0" dy="6" in="SourceAlpha" result="shadowOffsetOuter1"></feOffset>
            <feGaussianBlur stdDeviation="3" in="shadowOffsetOuter1" result="shadowBlurOuter1"></feGaussianBlur>
            <feComposite in="shadowBlurOuter1" in2="SourceAlpha" operator="out" result="shadowBlurOuter1"></feComposite>
            <feColorMatrix values="0 0 0 0 1   0 0 0 0 0.443137255   0 0 0 0 0.443137255  0 0 0 0.3 0" type="matrix" in="shadowBlurOuter1"></feColorMatrix>
        </filter>
        <filter x="-8.2%" y="-2.0%" width="116.3%" height="116.3%" filterUnits="objectBoundingBox" id="filter-4">
            <feOffset dx="0" dy="4" in="SourceAlpha" result="shadowOffsetInner1"></feOffset>
            <feComposite in="shadowOffsetInner1" in2="SourceAlpha" operator="arithmetic" k2="-1" k3="1" result="shadowInnerInner1"></feComposite>
            <feColorMatrix values="0 0 0 0 1   0 0 0 0 1   0 0 0 0 1  0 0 0 0.3 0" type="matrix" in="shadowInnerInner1"></feColorMatrix>
        </filter>
        <path d="M66.4794462,68.48465 L66.4794462,68.48465 L51.048097,83.9159992 C49.681262,85.2828343 47.4651846,85.2828343 46.0983496,83.9159992 C44.7315145,82.5491642 44.7315145,80.3330868 46.0983496,78.9662518 L61.5296988,63.5349026 L61.5296988,66.3633297 L46.0251263,50.8587572 C44.6582912,49.4919222 44.6582912,47.2758448 46.0251263,45.9090097 C47.3919613,44.5421747 49.6080387,44.5421747 50.9748737,45.9090097 L66.4794462,61.4135822 L63.6510191,61.4135822 L80.0394751,45.0251263 C81.4063101,43.6582912 83.6223875,43.6582912 84.9892225,45.0251263 C86.3560576,46.3919613 86.3560576,48.6080387 84.9892225,49.9748737 L68.6007666,66.3633297 L68.6007666,63.5349026 L84.9159992,79.8501352 C86.2828343,81.2169703 86.2828343,83.4330477 84.9159992,84.7998827 C83.5491642,86.1667177 81.3330868,86.1667177 79.9662518,84.7998827 L63.6510191,68.48465 L66.4794462,68.48465 Z" id="path-5"></path>
        <filter x="-3.7%" y="-3.6%" width="107.3%" height="114.3%" filterUnits="objectBoundingBox" id="filter-6">
            <feOffset dx="0" dy="3" in="SourceAlpha" result="shadowOffsetOuter1"></feOffset>
            <feColorMatrix values="0 0 0 0 1   0 0 0 0 1   0 0 0 0 1  0 0 0 0.3 0" type="matrix" in="shadowOffsetOuter1"></feColorMatrix>
        </filter>
    </defs>
    <g id="Symbols" stroke="none" stroke-width="1" fill="none" fill-rule="evenodd">
        <g id="fail">
            <g id="Combined-Shape">
                <use fill="black" fill-opacity="1" filter="url(#filter-3)" xlink:href="#path-2"></use>
                <use fill="url(#linearGradient-1)" fill-rule="evenodd" xlink:href="#path-2"></use>
                <use fill="black" fill-opacity="1" filter="url(#filter-4)" xlink:href="#path-2"></use>
                <path stroke-opacity="0.3" stroke="#FFCED0" stroke-width="4" d="M64,111 C89.9573832,111 111,89.9573832 111,64 C111,38.0426168 89.9573832,17 64,17 C38.0426168,17 17,38.0426168 17,64 C17,89.9573832 38.0426168,111 64,111 Z M70.440864,65.4482233 L69.0266504,66.8624369 L69.0266504,64.0340097 L70.440864,65.4482233 Z M65.4911165,70.3979708 L51.4739809,84.4151064 C50.1071459,85.7819414 47.8910685,85.7819414 46.5242334,84.4151064 C45.1573984,83.0482714 45.1573984,80.8321939 46.5242334,79.4653589 L60.5413691,65.4482233 L46.4510101,51.3578644 C45.0841751,49.9910294 45.0841751,47.7749519 46.4510101,46.4081169 C47.8178451,45.0412819 50.0339226,45.0412819 51.4007576,46.4081169 L65.4911165,60.4984758 L80.4653589,45.5242334 C81.8321939,44.1573984 84.0482714,44.1573984 85.4151064,45.5242334 C86.7819414,46.8910685 86.7819414,49.1071459 85.4151064,50.4739809 L70.440864,65.4482233 L85.3418831,80.3492424 C86.7087181,81.7160774 86.7087181,83.9321549 85.3418831,85.2989899 C83.9750481,86.6658249 81.7589706,86.6658249 80.3921356,85.2989899 L65.4911165,70.3979708 Z"></path>
                <path stroke="#FF6D6D" stroke-width="2" d="M64,112 C90.509668,112 112,90.509668 112,64 C112,37.490332 90.509668,16 64,16 C37.490332,16 16,37.490332 16,64 C16,90.509668 37.490332,112 64,112 Z M65.4911165,68.9837572 L50.7668741,83.7079996 C49.7905634,84.6843103 48.2076509,84.6843103 47.2313402,83.7079996 C46.2550295,82.7316889 46.2550295,81.1487764 47.2313402,80.1724657 L61.9555826,65.4482233 L47.1581169,50.6507576 C46.1818062,49.6744469 46.1818062,48.0915344 47.1581169,47.1152237 C48.1344276,46.138913 49.7173401,46.138913 50.6936508,47.1152237 L65.4911165,61.9126894 L81.1724657,46.2313402 C82.1487764,45.2550295 83.7316889,45.2550295 84.7079996,46.2313402 C85.6843103,47.2076509 85.6843103,48.7905634 84.7079996,49.7668741 L69.0266504,65.4482233 L84.6347763,81.0563492 C85.611087,82.0326599 85.611087,83.6155724 84.6347763,84.5918831 C83.6584656,85.5681938 82.0755531,85.5681938 81.0992424,84.5918831 L65.4911165,68.9837572 Z"></path>
            </g>
            <g id="Combined-Shape" fill-rule="nonzero">
                <use fill="black" fill-opacity="1" filter="url(#filter-6)" xlink:href="#path-5"></use>
                <use fill="#FF6D6D" fill-rule="evenodd" xlink:href="#path-5"></use>
            </g>
            <path d="M65.0652327,67.0704365 L49.6338835,82.5017857 C49.048097,83.0875721 48.0983496,83.0875721 47.5125631,82.5017857 C46.9267767,81.9159992 46.9267767,80.9662518 47.5125631,80.3804653 L62.9439123,64.9491161 L47.4393398,49.4445436 C46.8535534,48.8587572 46.8535534,47.9090097 47.4393398,47.3232233 C48.0251263,46.7374369 48.9748737,46.7374369 49.5606602,47.3232233 L65.0652327,62.8277958 L81.4536886,46.4393398 C82.0394751,45.8535534 82.9892225,45.8535534 83.575009,46.4393398 C84.1607954,47.0251263 84.1607954,47.9748737 83.575009,48.5606602 L67.186553,64.9491161 L83.5017857,81.2643488 C84.0875721,81.8501352 84.0875721,82.7998827 83.5017857,83.3856691 C82.9159992,83.9714556 81.9662518,83.9714556 81.3804653,83.3856691 L65.0652327,67.0704365 L65.0652327,67.0704365 Z" id="Combined-Shape" fill="#FFFFFF"></path>
        </g>
    </g>
</svg>