<?xml version="1.0" encoding="UTF-8"?>
<svg width="96px" height="96px" viewBox="0 0 96 96" version="1.1" xmlns="http://www.w3.org/2000/svg" xmlns:xlink="http://www.w3.org/1999/xlink">
    <!-- Generator: Sketch 58 (84663) - https://sketch.com -->
    <title>deepin-boot-maker-96px</title>
    <desc>Created with Sketch.</desc>
    <defs>
        <filter x="-9.4%" y="-5.6%" width="119.3%" height="112.3%" filterUnits="objectBoundingBox" id="filter-1">
            <feOffset dx="0" dy="1" in="SourceAlpha" result="shadowOffsetOuter1"></feOffset>
            <feGaussianBlur stdDeviation="0.5" in="shadowOffsetOuter1" result="shadowBlurOuter1"></feGaussianBlur>
            <feComposite in="shadowBlurOuter1" in2="SourceAlpha" operator="out" result="shadowBlurOuter1"></feComposite>
            <feColorMatrix values="0 0 0 0 0   0 0 0 0 0   0 0 0 0 0  0 0 0 0.15 0" type="matrix" in="shadowBlurOuter1" result="shadowMatrixOuter1"></feColorMatrix>
            <feMerge>
                <feMergeNode in="shadowMatrixOuter1"></feMergeNode>
                <feMergeNode in="SourceGraphic"></feMergeNode>
            </feMerge>
        </filter>
        <linearGradient x1="32.2007323%" y1="0%" x2="71.9722321%" y2="80.043189%" id="linearGradient-2">
            <stop stop-color="#9BBE34" offset="0%"></stop>
            <stop stop-color="#3A7D09" offset="100%"></stop>
        </linearGradient>
        <path d="M40.5,0 C41.7426407,4.18647718e-15 42.75,1.00735931 42.75,2.25 L42.75,47.5 L0,47.5 L0,15.6070317 C-3.84649249e-16,14.9494372 0.259094243,14.3183223 0.721150197,13.8504175 L13.664344,0.74338582 C14.1340565,0.267727557 14.7747025,-7.65378556e-16 15.4431938,0 L40.5,0 Z M38,2.375 C36.6883237,2.375 35.625,3.45178351 35.625,4.78006329 C35.625,6.10834307 36.6883237,7.18512658 38,7.18512658 C39.3116763,7.18512658 40.375,6.10834307 40.375,4.78006329 C40.375,3.45178351 39.3116763,2.375 38,2.375 Z" id="path-3"></path>
        <filter x="-2.3%" y="-2.1%" width="104.7%" height="104.2%" filterUnits="objectBoundingBox" id="filter-5">
            <feGaussianBlur stdDeviation="0.5" in="SourceAlpha" result="shadowBlurInner1"></feGaussianBlur>
            <feOffset dx="0" dy="1" in="shadowBlurInner1" result="shadowOffsetInner1"></feOffset>
            <feComposite in="shadowOffsetInner1" in2="SourceAlpha" operator="arithmetic" k2="-1" k3="1" result="shadowInnerInner1"></feComposite>
            <feColorMatrix values="0 0 0 0 1   0 0 0 0 1   0 0 0 0 1  0 0 0 0.3 0" type="matrix" in="shadowInnerInner1" result="shadowMatrixInner1"></feColorMatrix>
            <feGaussianBlur stdDeviation="0.5" in="SourceAlpha" result="shadowBlurInner2"></feGaussianBlur>
            <feOffset dx="-1" dy="-1" in="shadowBlurInner2" result="shadowOffsetInner2"></feOffset>
            <feComposite in="shadowOffsetInner2" in2="SourceAlpha" operator="arithmetic" k2="-1" k3="1" result="shadowInnerInner2"></feComposite>
            <feColorMatrix values="0 0 0 0 0.0184287527   0 0 0 0 0.105044158   0 0 0 0 0.00466373642  0 0 0 0.35385708 0" type="matrix" in="shadowInnerInner2" result="shadowMatrixInner2"></feColorMatrix>
            <feMerge>
                <feMergeNode in="shadowMatrixInner1"></feMergeNode>
                <feMergeNode in="shadowMatrixInner2"></feMergeNode>
            </feMerge>
        </filter>
        <linearGradient x1="82.0902646%" y1="23.326809%" x2="16.981766%" y2="86.4089668%" id="linearGradient-6">
            <stop stop-color="#FFFFFF" stop-opacity="0.647372159" offset="0%"></stop>
            <stop stop-color="#FFFFFF" offset="100%"></stop>
        </linearGradient>
        <linearGradient x1="50%" y1="34.5679012%" x2="60.7243846%" y2="62.6455247%" id="linearGradient-7">
            <stop stop-color="#303030" offset="0%"></stop>
            <stop stop-color="#131212" offset="100%"></stop>
        </linearGradient>
        <linearGradient x1="0%" y1="42.26417%" x2="100%" y2="57.7251443%" id="linearGradient-8">
            <stop stop-color="#F1E274" offset="0%"></stop>
            <stop stop-color="#CEB214" offset="18.1492935%"></stop>
            <stop stop-color="#F2CC00" offset="37.8161879%"></stop>
            <stop stop-color="#E7BF00" offset="56.4734084%"></stop>
            <stop stop-color="#F9D53B" offset="67.5681256%"></stop>
            <stop stop-color="#E8B800" offset="83.4427313%"></stop>
            <stop stop-color="#FFCF00" offset="100%"></stop>
        </linearGradient>
        <path d="M9,52.25 C9.27614237,52.25 9.5,52.4738576 9.5,52.75 L9.5,66 C9.5,66.2761424 9.27614237,66.5 9,66.5 L5.25,66.5 C4.97385763,66.5 4.75,66.2761424 4.75,66 L4.75,52.75 C4.75,52.4738576 4.97385763,52.25 5.25,52.25 L9,52.25 Z M37.5,52.25 C37.7761424,52.25 38,52.4738576 38,52.75 L38,66 C38,66.2761424 37.7761424,66.5 37.5,66.5 L33.75,66.5 C33.4738576,66.5 33.25,66.2761424 33.25,66 L33.25,52.75 C33.25,52.4738576 33.4738576,52.25 33.75,52.25 L37.5,52.25 Z M28,52.25 C28.2761424,52.25 28.5,52.4738576 28.5,52.75 L28.5,61.25 C28.5,61.5261424 28.2761424,61.75 28,61.75 L24.25,61.75 C23.9738576,61.75 23.75,61.5261424 23.75,61.25 L23.75,52.75 C23.75,52.4738576 23.9738576,52.25 24.25,52.25 L28,52.25 Z M18.5,52.25 C18.7761424,52.25 19,52.4738576 19,52.75 L19,61.25 C19,61.5261424 18.7761424,61.75 18.5,61.75 L14.75,61.75 C14.4738576,61.75 14.25,61.5261424 14.25,61.25 L14.25,52.75 C14.25,52.4738576 14.4738576,52.25 14.75,52.25 L18.5,52.25 Z" id="path-9"></path>
        <filter x="-1.5%" y="-3.5%" width="103.0%" height="107.0%" filterUnits="objectBoundingBox" id="filter-10">
            <feOffset dx="0" dy="1" in="SourceAlpha" result="shadowOffsetInner1"></feOffset>
            <feComposite in="shadowOffsetInner1" in2="SourceAlpha" operator="arithmetic" k2="-1" k3="1" result="shadowInnerInner1"></feComposite>
            <feColorMatrix values="0 0 0 0 0.926828578   0 0 0 0 0.558558022   0 0 0 0 0  0 0 0 0.5 0" type="matrix" in="shadowInnerInner1"></feColorMatrix>
        </filter>
    </defs>
    <g id="页面-1" stroke="none" stroke-width="1" fill="none" fill-rule="evenodd">
        <g id="启动盘_-关于" transform="translate(-493.000000, -220.000000)">
            <g id="deepin-boot-maker-96px" transform="translate(493.000000, 220.000000)">
                <g id="deepin-boot-maker-32px" transform="translate(10.000000, 10.000000)">
                    <g id="编组" filter="url(#filter-1)" transform="translate(16.625000, 2.375000)">
                        <g id="路径">
                            <mask id="mask-4" fill="white">
                                <use xlink:href="#path-3"></use>
                            </mask>
                            <g id="形状结合">
                                <use fill="url(#linearGradient-2)" fill-rule="evenodd" xlink:href="#path-3"></use>
                                <use fill="black" fill-opacity="1" filter="url(#filter-5)" xlink:href="#path-3"></use>
                            </g>
                            <path d="M-8.63508992,25.4259752 C-7.4983245,26.3650213 -6.18682603,27.5296373 -4.91761838,28.8412255 C-4.91761838,28.8412255 0.786170664,33.8442906 5.35758463,35.2275378 C5.35758463,35.2275378 8.6468097,36.3830826 12.6375021,36.8101969 C12.6375021,36.8101969 13.3612452,37.0284661 14.2204155,36.0917602 C15.0796621,35.1605917 17.9097286,33.1990681 20.8988138,33.3343917 C20.8988138,33.3343917 22.6397587,33.83766 22.9061412,32.4085064 C22.9061412,32.4085064 23.250735,30.4939602 20.975416,30.6565091 C20.975416,30.6565091 15.2593023,30.9194548 10.4296726,35.5754897 C10.4296726,35.5754897 8.7767253,35.4977889 7.14061968,34.3654744 C7.14061968,34.3654744 13.8664223,26.8786377 20.8625057,26.6154189 C20.8625057,26.6154189 27.7720729,26.1010801 23.5075009,32.6524408 C23.5075009,32.6524408 19.7269078,39.1668034 7.00354908,38.9500535 C7.00354908,38.9500535 -1.05280647,39.2005504 -5.93970759,38.8963087 C-4.40456148,42.2725285 -2.87938501,45.5050447 0.39439505,48.5534038 C1.18543078,49.3083582 1.97466864,50.134219 3.20744846,50.4011287 C10.6413203,48.9558124 19.0517858,43.4786295 23.1124697,39.009414 C23.1124697,39.009414 29.6728396,32.6431061 27.3820508,25.9246874 C27.3820508,25.9246874 25.0146128,20.2067561 16.6902763,23.2610819 C16.6902763,23.2610819 11.650493,24.6544656 5.35913327,32.7284893 C5.35913327,32.7284893 4.74020401,31.879328 4.76884935,31.6811647 C4.79658483,31.4839439 8.56732546,24.4555849 14.1526712,20.864612 C14.1526712,20.864612 20.4371439,16.3753952 26.6052986,19.9183515 C32.7715827,23.4595011 33.7183308,30.2164733 33.5931851,35.5993408 C33.499747,39.6227664 30.8837965,48.1688031 25.6787893,56.4091143 C32.1218307,55.5426289 38.3180455,52.5880481 43.1714696,47.5610204 C46.4534508,44.1616451 48.7670645,40.1815954 50.1193195,35.9597752 C46.3828016,29.6115363 36.8262278,15.6858269 23.9306676,13.739788 C15.1630357,12.4175091 10.1152167,18.9863425 10.1152167,18.9863425 C5.85219004,23.5740921 4.35773346,30.7777614 4.35773346,30.7777614 C2.68503288,10.5181788 19.5264294,6.07269641 19.5264294,6.07269641 C28.4769149,2.95024103 38.5688437,5.2395882 45.6787724,8.87879105 C44.6753722,7.5145946 43.5437776,6.21579358 42.284338,4.99928407 C30.2871499,-6.5889603 11.2338656,-6.32019049 -0.272579815,5.59783223 L-2.20670505,3.7296348 C10.3270778,-9.25247247 31.0785211,-9.54519688 44.1430905,3.07404533 C57.2076599,15.6932875 57.6393777,36.4471106 45.1055949,49.4292178 C32.5716448,62.4114982 11.8192527,62.7048565 -1.24514235,50.0857826 C-14.3095374,37.4667088 -14.7406551,16.7119152 -2.20670505,3.7296348 L-0.272579815,5.59783223 C-5.63324317,11.1502427 -8.41059038,18.2519333 -8.63508992,25.4259752 Z" fill-opacity="0.67" fill="url(#linearGradient-6)" fill-rule="nonzero" mask="url(#mask-4)" transform="translate(21.449219, 26.579677) rotate(-225.000000) translate(-21.449219, -26.579677) "></path>
                        </g>
                        <path d="M0,47.5 L42.75,47.5 L42.75,69 C42.75,70.2426407 41.7426407,71.25 40.5,71.25 L2.25,71.25 C1.00735931,71.25 1.52179594e-16,70.2426407 0,69 L0,47.5 L0,47.5 Z" id="矩形" fill="url(#linearGradient-7)"></path>
                        <g id="形状结合">
                            <use fill="url(#linearGradient-8)" fill-rule="evenodd" xlink:href="#path-9"></use>
                            <use fill="black" fill-opacity="1" filter="url(#filter-10)" xlink:href="#path-9"></use>
                        </g>
                    </g>
                </g>
            </g>
        </g>
    </g>
</svg>