<?xml version="1.0" encoding="iso-8859-1"?>
<!-- Generator: Adobe Illustrator 18.0.0, SVG Export Plug-In . SVG Version: 6.00 Build 0)  -->
<!DOCTYPE svg PUBLIC "-//W3C//DTD SVG 1.1//EN" "http://www.w3.org/Graphics/SVG/1.1/DTD/svg11.dtd">
<svg version="1.1" id="&#x56FE;&#x5C42;_1" xmlns="http://www.w3.org/2000/svg" xmlns:xlink="http://www.w3.org/1999/xlink" x="0px"
	 y="0px" viewBox="0 0 30 20" enable-background="new 0 0 30 20" xml:space="preserve">
<g>
	<path opacity="0.1" fill="#FFFFFF" d="M25.667,19.5H4.333c-2.108,0-3.833-1.725-3.833-3.833V4.333C0.5,2.225,2.225,0.5,4.333,0.5
		h21.334c2.108,0,3.833,1.725,3.833,3.833v11.334C29.5,17.775,27.775,19.5,25.667,19.5z"/>
	<path d="M13.981,12.627c0.528,0.37,1.098,0.554,1.708,0.554c0.817,0,1.226-0.259,1.226-0.777c0-0.221-0.089-0.402-0.268-0.546
		s-0.541-0.314-1.087-0.511c-0.657-0.256-1.083-0.508-1.28-0.758c-0.196-0.25-0.295-0.554-0.295-0.91
		c0-0.508,0.222-0.914,0.667-1.219C15.098,8.154,15.645,8,16.295,8c0.503,0,0.971,0.085,1.403,0.254v0.979
		c-0.443-0.276-0.944-0.415-1.505-0.415c-0.336,0-0.609,0.071-0.819,0.212c-0.211,0.142-0.316,0.328-0.316,0.56
		c0,0.228,0.076,0.406,0.228,0.534c0.152,0.128,0.488,0.292,1.009,0.492c0.66,0.238,1.107,0.485,1.339,0.741
		c0.232,0.256,0.348,0.572,0.348,0.948c0,0.525-0.222,0.94-0.667,1.242C16.87,13.85,16.295,14,15.588,14
		c-0.614,0-1.149-0.112-1.606-0.337V12.627z"/>
	<path d="M23.012,13.587c-0.435,0.259-0.96,0.389-1.574,0.389c-0.823,0-1.485-0.263-1.985-0.789
		c-0.501-0.526-0.751-1.207-0.751-2.043c0-0.929,0.27-1.676,0.81-2.245s1.263-0.853,2.168-0.853c0.521,0,0.967,0.092,1.337,0.277
		v0.993c-0.401-0.294-0.847-0.44-1.337-0.44c-0.576,0-1.045,0.2-1.407,0.597c-0.362,0.398-0.543,0.927-0.543,1.589
		c0,0.652,0.171,1.162,0.512,1.531s0.801,0.553,1.381,0.553c0.49,0,0.953-0.16,1.389-0.481V13.587z"/>
	<path fill="none" stroke="#CBCBCB" stroke-miterlimit="10" d="M25.5,19.5h-21c-2.209,0-4-1.791-4-4v-11c0-2.209,1.791-4,4-4h21
		c2.209,0,4,1.791,4,4v11C29.5,17.709,27.709,19.5,25.5,19.5z"/>
	<g>
		<path d="M13,14.108H8v-9h5v1H9v3h3v1H9v3h4V14.108z"/>
	</g>
</g>
</svg>
