<?xml version="1.0" encoding="iso-8859-1"?>
<!-- Generator: Adobe Illustrator 18.0.0, SVG Export Plug-In . SVG Version: 6.00 Build 0)  -->
<!DOCTYPE svg PUBLIC "-//W3C//DTD SVG 1.1//EN" "http://www.w3.org/Graphics/SVG/1.1/DTD/svg11.dtd">
<svg version="1.1" id="&#x56FE;&#x5C42;_1" xmlns="http://www.w3.org/2000/svg" xmlns:xlink="http://www.w3.org/1999/xlink" x="0px"
	 y="0px" viewBox="0 0 46 20" enable-background="new 0 0 46 20" xml:space="preserve">
<g>
	<g>
		<path fill="#727171" d="M18.516,6c-0.276,0-0.5,0.224-0.5,0.5V16h-5.469c-0.276,0-0.531,0.224-0.531,0.5v0.528l-3-0.025V16.5
			c0-0.276-0.224-0.5-0.5-0.5h-5.5V6.5c0-0.276-0.224-0.5-0.5-0.5s-0.5,0.224-0.5,0.5v10c0,0.276,0.224,0.5,0.5,0.5h5.5v0.5
			c0,0.275,0.222,0.482,0.497,0.484L12.544,18c0.001,0,0.002,0,0.003,0c0.132,0,0.243-0.036,0.337-0.13
			c0.094-0.094,0.132-0.206,0.132-0.339V17h5.5c0.276,0,0.5-0.224,0.5-0.5v-10C19.016,6.224,18.793,6,18.516,6z"/>
		<path fill="#727171" d="M9.714,14.919c-2.312-1.367-4.621-0.39-5.411,0.028c-0.133,0.07-0.286-0.031-0.286-0.183V4.022
			c0-0.072,0.034-0.138,0.095-0.174c0.532-0.313,3.202-1.716,5.808-0.007c0.059,0.039,0.097,0.109,0.097,0.18v10.73
			C10.016,14.911,9.848,14.999,9.714,14.919z"/>
		<path fill="#727171" d="M16.714,14.919c-2.312-1.367-4.621-0.39-5.411,0.028c-0.133,0.07-0.286-0.031-0.286-0.183V4.022
			c0-0.072,0.034-0.138,0.095-0.174c0.532-0.313,3.202-1.716,5.808-0.007c0.059,0.039,0.097,0.109,0.097,0.18v10.73
			C17.016,14.911,16.848,14.999,16.714,14.919z"/>
	</g>
	<g>
		<path fill="#727171" d="M24.207,9.224c-0.031,0.5-0.047,1.078-0.047,1.734v3.234c0.375-0.344,0.797-0.766,1.266-1.266
			c0.156,0.188,0.359,0.422,0.609,0.703c-0.375,0.344-0.797,0.727-1.266,1.148s-0.813,0.773-1.031,1.055
			c-0.281-0.313-0.531-0.563-0.75-0.75c0.25-0.219,0.359-0.547,0.328-0.984v-4.078c-0.531,0-1.016,0.016-1.453,0.047V9.177
			c0.438,0.031,0.766,0.047,0.984,0.047H24.207z M24.91,7.583c-0.094,0.094-0.313,0.328-0.656,0.703
			c-0.781-0.813-1.391-1.406-1.828-1.781c0.156-0.094,0.359-0.297,0.609-0.609C23.597,6.302,24.222,6.864,24.91,7.583z M30.066,8.38
			h1.547c-0.031,0.438-0.047,1.078-0.047,1.922s0.016,1.422,0.047,1.734h-1.547v3c0,0.281,0.141,0.422,0.422,0.422h0.75
			c0.281,0.031,0.469-0.375,0.563-1.219c0.25,0.219,0.594,0.359,1.031,0.422c-0.219,1.094-0.641,1.641-1.266,1.641h-1.547
			c-0.531,0-0.797-0.297-0.797-0.891v-3.375h-1.031c-0.063,0.563-0.148,1.086-0.258,1.57s-0.258,0.898-0.445,1.242
			s-0.461,0.68-0.82,1.008s-0.758,0.633-1.195,0.914c-0.219-0.188-0.547-0.391-0.984-0.609c0.719-0.375,1.219-0.68,1.5-0.914
			s0.516-0.516,0.703-0.844s0.328-0.711,0.422-1.148s0.156-0.844,0.188-1.219h-1.406c0.031-0.813,0.047-1.547,0.047-2.203
			s-0.016-1.141-0.047-1.453h3.281c0.531-1.344,0.844-2.25,0.938-2.719c0.406,0.188,0.797,0.359,1.172,0.516
			C31.035,6.427,30.628,7.161,30.066,8.38z M27.957,7.771c-0.25,0.125-0.516,0.281-0.797,0.469
			c-0.438-0.969-0.813-1.656-1.125-2.063c0.219-0.094,0.453-0.234,0.703-0.422C27.175,6.38,27.582,7.052,27.957,7.771z
			 M30.722,11.286V9.13h-3.891v2.156H30.722z"/>
		<path fill="#727171" d="M37.988,8.614v3.375c0,0.75,0.016,1.422,0.047,2.016h-0.891v-0.703h-1.969v1.313h-0.938
			c0.031-0.531,0.047-1.219,0.047-2.063V8.567c0-0.75-0.016-1.438-0.047-2.063h3.797C38.003,7.161,37.988,7.864,37.988,8.614z
			 M37.144,9.411V7.302h-1.969v2.109H37.144z M37.144,12.458v-2.297h-1.969v2.297H37.144z M43.988,8.192v6.75
			c0.031,0.594-0.07,0.977-0.305,1.148s-0.758,0.32-1.57,0.445c-0.063-0.344-0.219-0.719-0.469-1.125
			c0.531,0.031,0.906,0.023,1.125-0.023s0.313-0.211,0.281-0.492v-2.484h-2.766c-0.188,1.625-0.719,3.078-1.594,4.359
			c-0.313-0.281-0.641-0.484-0.984-0.609c1.219-1.219,1.781-3.203,1.688-5.953V8.239c0-0.75-0.016-1.453-0.047-2.109h4.688
			C44.003,6.724,43.988,7.411,43.988,8.192z M43.05,8.896V6.927h-2.719v1.969H43.05z M43.05,11.614V9.692h-2.719v1.922H43.05z"/>
	</g>
</g>
</svg>
