<?xml version="1.0" encoding="iso-8859-1"?>
<!-- Generator: Adobe Illustrator 18.1.1, SVG Export Plug-In . SVG Version: 6.00 Build 0)  -->
<!DOCTYPE svg PUBLIC "-//W3C//DTD SVG 1.1//EN" "http://www.w3.org/Graphics/SVG/1.1/DTD/svg11.dtd" [
	<!ENTITY ns_extend "http://ns.adobe.com/Extensibility/1.0/">
	<!ENTITY ns_ai "http://ns.adobe.com/AdobeIllustrator/10.0/">
	<!ENTITY ns_graphs "http://ns.adobe.com/Graphs/1.0/">
	<!ENTITY ns_vars "http://ns.adobe.com/Variables/1.0/">
	<!ENTITY ns_imrep "http://ns.adobe.com/ImageReplacement/1.0/">
	<!ENTITY ns_sfw "http://ns.adobe.com/SaveForWeb/1.0/">
	<!ENTITY ns_custom "http://ns.adobe.com/GenericCustomNamespace/1.0/">
	<!ENTITY ns_adobe_xpath "http://ns.adobe.com/XPath/1.0/">
]>
<svg version="1.1" id="&#x56FE;&#x5C42;_1" xmlns:x="&ns_extend;" xmlns:i="&ns_ai;" xmlns:graph="&ns_graphs;"
	 xmlns="http://www.w3.org/2000/svg" xmlns:xlink="http://www.w3.org/1999/xlink" x="0px" y="0px" viewBox="0 0 64 64"
	 enable-background="new 0 0 64 64" xml:space="preserve">
<metadata>
	<sfw  xmlns="&ns_sfw;">
		<slices></slices>
		<sliceSourceBounds  height="776" width="16383" x="-8088" y="-784" bottomLeftOrigin="true"></sliceSourceBounds>
	</sfw>
</metadata>
<g>
	<path fill="#B5B5B6" d="M53,13c0-1.657-1.343-3-3-3H14c-1.657,0-3,1.343-3,3v39c0,1.657,1.343,3,3,3h36c1.657,0,3-1.343,3-3V13z
		 M23,48h-7v-7h7V48z M23,36h-7v-7h7V36z M23,24h-7v-7h7V24z M48,46H27v-3h21V46z M48,34H27v-3h21V34z M48,22H27v-3h21V22z"/>
	<path fill="#B5B5B6" d="M18.41,21.178l-1.463-1.462c-0.096-0.096-0.251-0.096-0.347,0l-0.376,0.376
		c-0.096,0.096-0.096,0.251,0,0.347l1.576,1.576l0.611,0.611c0.096,0.096,0.251,0.096,0.347,0l0.55-0.55l3.446-3.446
		c0.096-0.096,0.096-0.251,0-0.347l-0.376-0.376c-0.096-0.096-0.251-0.096-0.347,0l-3.272,3.272
		C18.661,21.273,18.506,21.273,18.41,21.178z"/>
	<path fill="#B5B5B6" d="M18.41,33.229l-1.463-1.462c-0.096-0.096-0.251-0.096-0.347,0l-0.376,0.376
		c-0.096,0.096-0.096,0.251,0,0.347l1.576,1.576l0.611,0.611c0.096,0.096,0.251,0.096,0.347,0l0.55-0.55l3.446-3.446
		c0.096-0.096,0.096-0.251,0-0.347l-0.376-0.376c-0.096-0.096-0.251-0.096-0.347,0l-3.272,3.272
		C18.661,33.325,18.506,33.325,18.41,33.229z"/>
</g>
</svg>
