<?xml version="1.0" encoding="UTF-8" standalone="no"?>
<svg width="64px" height="64px" viewBox="0 0 64 64" version="1.1" xmlns="http://www.w3.org/2000/svg" xmlns:xlink="http://www.w3.org/1999/xlink">
    <!-- Generator: Sketch 3.8.3 (29802) - http://www.bohemiancoding.com/sketch -->
    <title>常用操作-64px</title>
    <desc>Created with Sketch.</desc>
    <defs></defs>
    <g id="Page-1" stroke="none" stroke-width="1" fill="none" fill-rule="evenodd">
        <g id="常用操作-64px" fill="#B5B5B6">
            <path d="M35.0212,37 L35.0262,47.006 C35.0282,53.05 39.9542,57.952 46.0272,57.954 C52.1002,57.956 57.0222,53.058 57.0202,47.014 L57.0152,37 L35.0212,37 Z M45,35 L45,24.005 C39.402,24.512 35,29.19 35,34.894 L35,35 L45,35 Z M47,35 L57,35 L57,34.902 C57,29.189 52.61,24.503 47,24.004 L47,35 Z M33.021,36.9998 L33,36.9998 L33,34.8938 C33,28.1608 38.081,22.6238 44.819,22.0128 L45,21.9968 L45,10.9998 C45,9.3458 43.654,7.9998 42,7.9998 L23,7.9998 C21.346,7.9998 20,9.3458 20,10.9998 L20,18.9998 C20,19.5508 19.551,19.9998 19,19.9998 L10,19.9998 C8.346,19.9998 7,21.3458 7,22.9998 L7,42.9998 C7,44.6538 8.346,45.9998 10,45.9998 L33.026,45.9998 L33.021,36.9998 Z M32,33.9458 C32,34.4978 31.505,34.9998 30.961,34.9998 L24,34.9998 L24,38.4458 C24,38.9978 23.543,39.4468 22.982,39.4468 C22.764,39.4468 22.556,39.3778 22.38,39.2458 L15.704,34.2458 C15.448,34.0538 15.301,33.7608 15.301,33.4418 C15.301,33.1248 15.446,32.8348 15.699,32.6458 L22.383,27.6458 C22.558,27.5138 22.766,27.4448 22.984,27.4448 C23.544,27.4448 24,27.8938 24,28.4458 L24,31.9998 L29,31.9848 L29,21.4458 C29,20.6188 29.673,19.9458 30.5,19.9458 C31.327,19.9458 32,20.6188 32,21.4458 L32,33.9458 Z" id="Combined-Shape"></path>
        </g>
    </g>
</svg>