<?xml version="1.0" encoding="iso-8859-1"?>
<!-- Generator: Adobe Illustrator 18.0.0, SVG Export Plug-In . SVG Version: 6.00 Build 0)  -->
<!DOCTYPE svg PUBLIC "-//W3C//DTD SVG 1.1//EN" "http://www.w3.org/Graphics/SVG/1.1/DTD/svg11.dtd">
<svg version="1.1" id="&#x56FE;&#x5C42;_1" xmlns="http://www.w3.org/2000/svg" xmlns:xlink="http://www.w3.org/1999/xlink" x="0px"
	 y="0px" viewBox="0 0 64 64" enable-background="new 0 0 64 64" xml:space="preserve">
<g>
	<path fill="#B5B5B6" d="M51,14H41v23.75l-4.937-6l-5.063,6V14H14v-3c0-0.551,0.449-1,1-1h36c0.552,0,1-0.448,1-1s-0.448-1-1-1H15
		c-1.654,0-3,1.346-3,3v42c0,1.654,1.346,3,3,3h34c1.654,0,3-1.346,3-3V15C52,14.448,51.552,14,51,14z"/>
	<rect x="31" y="12" fill="#B5B5B6" width="10" height="2"/>
</g>
</svg>
