<?xml version="1.0" encoding="UTF-8" standalone="no"?>
<svg width="24px" height="24px" viewBox="0 0 24 24" version="1.1" xmlns="http://www.w3.org/2000/svg" xmlns:xlink="http://www.w3.org/1999/xlink">
    <!-- Generator: Sketch 3.8.3 (29802) - http://www.bohemiancoding.com/sketch -->
    <title>常用操作-24px</title>
    <desc>Created with Sketch.</desc>
    <defs></defs>
    <g id="Page-1" stroke="none" stroke-width="1" fill="none" fill-rule="evenodd">
        <g id="常用操作-24px" fill="#B5B5B6">
            <g id="Page-1" transform="translate(1.000000, 2.000000)">
                <path d="M8.9847,11.3754 L8.9857,11.3754 L8.9847,11.3754 Z" id="Fill-1"></path>
                <g id="Group-10">
                    <path d="M10,13 L7,13 L7,14.969 C7,15.176 6.829,15.344 6.618,15.344 C6.537,15.344 6.458,15.318 6.393,15.269 L3.172,12.842 C3.076,12.77 3.021,12.66 3.021,12.541 C3.021,12.422 3.075,12.313 3.17,12.242 L6.394,9.725 C6.459,9.676 6.537,9.65 6.619,9.65 C6.829,9.65 7,9.818 7,10.025 L7,12 L9.501,11.996 C9.777,11.995 10,11.771 10,11.496 L10,6 L11,6.016 L11,12 C11,12.552 10.552,13 10,13 M12,17.5 L12,12.5 C12,9.988 13.695,7.868 16,7.213 L16,1 C16,0.448 15.552,0 15,0 L7,0 C6.448,0 6,0.448 6,1 L6,6 L1,6 C0.448,6 0,6.448 0,7 L0,17 C0,17.552 0.448,18 1,18 L12.025,18 C12.01,17.835 12,17.669 12,17.5" id="Fill-2"></path>
                    <path d="M18,12 L21.95,12 C21.716,9.92 20.08,8.284 18,8.05 L18,12 Z" id="Fill-4"></path>
                    <path d="M13,13 L13,16.5 C13,18.985 15.015,21 17.5,21 C19.985,21 22,18.985 22,16.5 L22,13 L13,13 Z" id="Fill-6"></path>
                    <path d="M17,12 L17,8.05 C14.92,8.284 13.284,9.92 13.05,12 L17,12 Z" id="Fill-8"></path>
                </g>
            </g>
        </g>
    </g>
</svg>