<?xml version="1.0" encoding="utf-8"?>
<!-- Generator: Adobe Illustrator 18.0.0, SVG Export Plug-In . SVG Version: 6.00 Build 0)  -->
<!DOCTYPE svg PUBLIC "-//W3C//DTD SVG 1.1//EN" "http://www.w3.org/Graphics/SVG/1.1/DTD/svg11.dtd">
<svg version="1.1" id="图层_1" xmlns="http://www.w3.org/2000/svg" xmlns:xlink="http://www.w3.org/1999/xlink" x="0px" y="0px"
	 viewBox="0 0 20 20" enable-background="new 0 0 20 20" xml:space="preserve">
<rect x="0" y="0" opacity="0" fill="#FFFFFF" width="20" height="20"/>
<g>
	<g>
		<path fill="#505050" d="M14.1,10.9H6c-0.5,0-0.9-0.4-0.9-0.9S5.5,9.1,6,9.1h8.1c0.5,0,0.9,0.4,0.9,0.9S14.6,10.9,14.1,10.9z"/>
	</g>
	<g>
		<path fill="#505050" d="M14.1,14.5H6c-0.5,0-0.9-0.4-0.9-0.9c0-0.5,0.4-0.9,0.9-0.9h8.1c0.5,0,0.9,0.4,0.9,0.9
			C15,14.1,14.6,14.5,14.1,14.5z"/>
	</g>
	<g>
		<path fill="#505050" d="M10.5,7.3H6c-0.5,0-0.9-0.4-0.9-0.9S5.5,5.5,6,5.5h4.5c0.5,0,0.9,0.4,0.9,0.9S11,7.3,10.5,7.3z"/>
	</g>
</g>
</svg>
