<?xml version="1.0" encoding="iso-8859-1"?>
<!-- Generator: Adobe Illustrator 18.0.0, SVG Export Plug-In . SVG Version: 6.00 Build 0)  -->
<!DOCTYPE svg PUBLIC "-//W3C//DTD SVG 1.1//EN" "http://www.w3.org/Graphics/SVG/1.1/DTD/svg11.dtd">
<svg version="1.1" id="&#x56FE;&#x5C42;_1" xmlns="http://www.w3.org/2000/svg" xmlns:xlink="http://www.w3.org/1999/xlink" x="0px"
	 y="0px" viewBox="0 0 53 20" enable-background="new 0 0 53 20" xml:space="preserve">
<g>
	<g>
		<path fill="#727171" d="M18.5,6C18.224,6,18,6.224,18,6.5V16h-5.469C12.255,16,12,16.224,12,16.5v0.528l-3-0.025V16.5
			C9,16.224,8.776,16,8.5,16H3V6.5C3,6.224,2.776,6,2.5,6S2,6.224,2,6.5v10C2,16.776,2.224,17,2.5,17H8v0.5
			c0,0.275,0.222,0.482,0.497,0.484L12.528,18c0.001,0,0.002,0,0.003,0c0.132,0,0.243-0.036,0.337-0.13
			C12.962,17.776,13,17.664,13,17.531V17h5.5c0.276,0,0.5-0.224,0.5-0.5v-10C19,6.224,18.776,6,18.5,6z"/>
		<path fill="#727171" d="M9.697,14.966c-2.312-1.375-4.621-0.392-5.411,0.028C4.154,15.064,4,14.963,4,14.81V4.012
			C4,3.94,4.034,3.874,4.095,3.837c0.532-0.315,3.202-1.725,5.808-0.007C9.962,3.87,10,3.94,10,4.012v10.787
			C10,14.958,9.832,15.046,9.697,14.966z"/>
		<path fill="#727171" d="M16.697,14.966c-2.312-1.375-4.621-0.392-5.411,0.028C11.154,15.064,11,14.963,11,14.81V4.012
			c0-0.072,0.034-0.139,0.095-0.175c0.532-0.315,3.202-1.725,5.808-0.007C16.962,3.87,17,3.94,17,4.012v10.787
			C17,14.958,16.832,15.046,16.697,14.966z"/>
	</g>
	<g>
		<path fill="#727171" d="M26.88,16.122h-1.172L23.13,10.31h-0.047v5.813h-1.078V8.106h1.172l2.578,5.813h0.047V8.106h1.078V16.122z
			"/>
		<path fill="#727171" d="M33.021,13.497c0,0.813-0.25,1.469-0.75,1.969s-1.094,0.75-1.781,0.75s-1.281-0.25-1.781-0.75
			s-0.75-1.156-0.75-1.969s0.25-1.469,0.75-1.969s1.094-0.75,1.781-0.75s1.281,0.25,1.781,0.75S33.021,12.685,33.021,13.497z
			 M31.989,13.497c0-0.625-0.156-1.094-0.469-1.406s-0.656-0.469-1.031-0.469s-0.719,0.156-1.031,0.469s-0.469,0.781-0.469,1.406
			s0.156,1.094,0.469,1.406s0.656,0.469,1.031,0.469s0.719-0.156,1.031-0.469S31.989,14.122,31.989,13.497z"/>
		<path fill="#727171" d="M38.212,15.981c-0.156,0.063-0.336,0.117-0.539,0.164s-0.477,0.07-0.82,0.07
			c-0.563,0-1.016-0.156-1.359-0.469s-0.516-0.75-0.516-1.313v-2.813h-1.594v-0.75h1.594V9.044h0.938v1.828h1.922v0.75h-1.922v2.859
			c0,0.25,0.063,0.461,0.188,0.633s0.359,0.258,0.703,0.258s0.625-0.031,0.844-0.094s0.406-0.141,0.563-0.234V15.981z"/>
		<path fill="#727171" d="M43.88,14.341c-0.063,0.563-0.313,1.016-0.75,1.359s-0.953,0.516-1.547,0.516
			c-0.75,0-1.367-0.242-1.852-0.727s-0.727-1.148-0.727-1.992s0.242-1.508,0.727-1.992s1.102-0.727,1.852-0.727
			c0.656,0,1.195,0.211,1.617,0.633s0.633,1.117,0.633,2.086h-3.797c0,0.688,0.148,1.172,0.445,1.453s0.664,0.422,1.102,0.422
			c0.344,0,0.625-0.086,0.844-0.258s0.359-0.43,0.422-0.773H43.88z M42.755,12.747c-0.063-0.438-0.203-0.742-0.422-0.914
			s-0.5-0.258-0.844-0.258c-0.313,0-0.594,0.086-0.844,0.258s-0.438,0.477-0.563,0.914H42.755z"/>
		<path fill="#727171" d="M49.436,14.669c0,0.5-0.195,0.883-0.586,1.148s-0.883,0.398-1.477,0.398c-0.75,0-1.328-0.148-1.734-0.445
			s-0.609-0.727-0.609-1.289h0.938c0,0.375,0.133,0.625,0.398,0.75s0.586,0.188,0.961,0.188s0.656-0.07,0.844-0.211
			s0.281-0.32,0.281-0.539c0-0.156-0.078-0.313-0.234-0.469s-0.547-0.281-1.172-0.375c-0.719-0.094-1.211-0.273-1.477-0.539
			s-0.398-0.617-0.398-1.055c0-0.375,0.18-0.711,0.539-1.008s0.883-0.445,1.57-0.445c0.625,0,1.117,0.141,1.477,0.422
			s0.539,0.656,0.539,1.125h-0.938c0-0.281-0.102-0.477-0.305-0.586s-0.461-0.164-0.773-0.164c-0.406,0-0.695,0.07-0.867,0.211
			s-0.258,0.305-0.258,0.492c0,0.219,0.078,0.391,0.234,0.516s0.484,0.219,0.984,0.281c0.813,0.125,1.359,0.32,1.641,0.586
			S49.436,14.263,49.436,14.669z"/>
	</g>
</g>
</svg>
