<?xml version="1.0" encoding="iso-8859-1"?>
<!-- Generator: Adobe Illustrator 18.0.0, SVG Export Plug-In . SVG Version: 6.00 Build 0)  -->
<!DOCTYPE svg PUBLIC "-//W3C//DTD SVG 1.1//EN" "http://www.w3.org/Graphics/SVG/1.1/DTD/svg11.dtd">
<svg version="1.1" id="&#x56FE;&#x5C42;_1" xmlns="http://www.w3.org/2000/svg" xmlns:xlink="http://www.w3.org/1999/xlink" x="0px"
	 y="0px" viewBox="0 0 43 20" enable-background="new 0 0 43 20" xml:space="preserve">
<g>
	<path fill="#727171" d="M23.855,8.099H21.98v7.125h-1.078V8.099h-1.875V7.208h4.828V8.099z"/>
	<path fill="#727171" d="M26.957,8.474H26.02V7.255h0.938V8.474z M26.957,15.224H26.02v-5.25h0.938V15.224z"/>
	<path fill="#727171" d="M33.809,12.599c0,0.906-0.219,1.594-0.656,2.063s-0.969,0.703-1.594,0.703c-0.344,0-0.641-0.07-0.891-0.211
		s-0.469-0.352-0.656-0.633v2.438h-0.938V9.974h0.938v0.703c0.188-0.281,0.406-0.484,0.656-0.609s0.547-0.188,0.891-0.188
		c0.625,0,1.156,0.227,1.594,0.68S33.809,11.692,33.809,12.599z M32.777,12.599c0-0.594-0.117-1.055-0.352-1.383
		s-0.586-0.492-1.055-0.492c-0.375,0-0.695,0.164-0.961,0.492s-0.398,0.789-0.398,1.383s0.133,1.063,0.398,1.406
		s0.586,0.516,0.961,0.516c0.469,0,0.82-0.172,1.055-0.516S32.777,13.192,32.777,12.599z"/>
	<path fill="#727171" d="M39.499,13.771c0,0.5-0.195,0.883-0.586,1.148s-0.883,0.398-1.477,0.398c-0.75,0-1.328-0.148-1.734-0.445
		s-0.609-0.727-0.609-1.289h0.938c0,0.375,0.133,0.625,0.398,0.75s0.586,0.188,0.961,0.188s0.656-0.07,0.844-0.211
		s0.281-0.32,0.281-0.539c0-0.156-0.078-0.313-0.234-0.469s-0.547-0.281-1.172-0.375c-0.719-0.094-1.211-0.273-1.477-0.539
		s-0.398-0.617-0.398-1.055c0-0.375,0.18-0.711,0.539-1.008s0.883-0.445,1.57-0.445c0.625,0,1.117,0.141,1.477,0.422
		s0.539,0.656,0.539,1.125h-0.938c0-0.281-0.102-0.477-0.305-0.586s-0.461-0.164-0.773-0.164c-0.406,0-0.695,0.07-0.867,0.211
		s-0.258,0.305-0.258,0.492c0,0.219,0.078,0.391,0.234,0.516s0.484,0.219,0.984,0.281c0.813,0.125,1.359,0.32,1.641,0.586
		S39.499,13.364,39.499,13.771z"/>
</g>
<path id="light-bulb-11-icon_2_" fill="#727171" d="M13.101,18.026l3.41-2.267c-0.383,1.466-0.367,1.677-0.716,1.909l-0.688,0.458
	C14.749,18.363,14.546,18.258,13.101,18.026z M15.53,14.234l-3.457,2.299c-0.254,0.169-0.323,0.512-0.154,0.765
	s0.512,0.323,0.765,0.154l3.457-2.299c0.254-0.169,0.323-0.512,0.154-0.765C16.127,14.134,15.784,14.065,15.53,14.234z
	 M13.602,3.782c1.872,2.815,0.743,6.011,1.718,8.413c0.182,0.449,0.045,0.961-0.358,1.23l-3.458,2.3
	c-0.403,0.268-0.929,0.197-1.273-0.145c-1.838-1.828-5.223-2.023-7.095-4.838c-2.16-3.247-0.734-6.773,1.882-8.513
	C7.636,0.489,11.444,0.537,13.602,3.782z M6.757,4.498L5.893,3.605C4.099,5.458,3.986,7.74,4.844,9.725l1.155-0.456
	C5.473,7.936,5.241,6.269,6.757,4.498z"/>
</svg>
